<svg width="358" height="40" viewBox="0 0 358 40" fill="none" xmlns="http://www.w3.org/2000/svg">
<g clip-path="url(#clip0_10559_24550)">
<mask id="mask0_10559_24550" style="mask-type:alpha" maskUnits="userSpaceOnUse" x="0" y="0" width="358" height="40">
<path d="M0 0H358L348 20L358 40H0L10 20L0 0Z" fill="url(#paint0_linear_10559_24550)"/>
</mask>
<g mask="url(#mask0_10559_24550)">
<path d="M0 0H358L348 20L358 40H0L10 20L0 0Z" fill="url(#paint1_linear_10559_24550)"/>
<g opacity="0.15">
<g filter="url(#filter0_dd_10559_24550)">
<path fill-rule="evenodd" clip-rule="evenodd" d="M130.531 11.7225C135.866 10.2931 139.031 4.80973 137.602 -0.524935C136.173 -5.8596 130.689 -9.02542 125.355 -7.596C120.02 -6.16658 116.854 -0.683215 118.284 4.65145C119.713 9.98611 125.196 13.1519 130.531 11.7225ZM126.791 7.45818L128.578 5.49465C128.707 5.35259 128.905 5.29985 129.088 5.35871L131.637 6.17859C131.764 6.21952 131.901 6.2069 132.018 6.14396C132.259 6.01313 132.348 5.7069 132.217 5.45873L130.908 2.97824C130.821 2.81236 130.829 2.61134 130.931 2.45637L132.437 0.15587C132.508 0.0461784 132.534 -0.0875413 132.511 -0.217616C132.46 -0.49357 132.2 -0.677717 131.93 -0.629139L129.303 -0.155071C129.118 -0.122124 128.93 -0.198201 128.816 -0.352354L127.176 -2.57233C127.095 -2.68299 126.973 -2.75563 126.839 -2.77321C126.566 -2.80913 126.319 -2.61345 126.287 -2.33532L125.971 0.406223C125.949 0.596471 125.823 0.756596 125.646 0.820043L123.145 1.71196C123.022 1.75575 122.921 1.84789 122.865 1.96804C122.748 2.21948 122.853 2.52358 123.101 2.64683L124.168 3.17715C124.676 3.4297 125.265 3.44331 125.777 3.21345L127.925 2.25123C128.015 2.21092 128.122 2.23408 128.189 2.30901C128.275 2.40524 128.269 2.55392 128.176 2.6408L126.446 4.24915C126.082 4.58828 125.881 5.07227 125.893 5.57805L125.929 7.11682C125.932 7.2547 125.99 7.38629 126.089 7.48064C126.291 7.67259 126.606 7.66229 126.791 7.45818Z" fill="white"/>
</g>
<g filter="url(#filter1_dd_10559_24550)">
<path fill-rule="evenodd" clip-rule="evenodd" d="M101.55 19.4881C106.885 18.0587 110.051 12.5754 108.622 7.24069C107.192 1.90603 101.709 -1.2598 96.3741 0.169622C91.0394 1.59904 87.8736 7.08241 89.303 12.4171C90.7325 17.7517 96.2158 20.9176 101.55 19.4881ZM97.8109 15.2238L99.5977 13.2603C99.7269 13.1182 99.925 13.0655 100.108 13.1243L102.656 13.9442C102.783 13.9851 102.921 13.9725 103.037 13.9096C103.278 13.7788 103.368 13.4725 103.237 13.2244L101.928 10.7439C101.84 10.578 101.849 10.377 101.95 10.222L103.456 7.9215C103.528 7.8118 103.554 7.67808 103.53 7.54801C103.479 7.27205 103.22 7.08791 102.95 7.13649L100.323 7.61055C100.138 7.6435 99.9494 7.56742 99.8353 7.41327L98.1958 5.19329C98.1141 5.08263 97.9921 5.00999 97.8582 4.99241C97.5855 4.95649 97.3387 5.15217 97.3065 5.43031L96.9905 8.17185C96.9683 8.3621 96.8424 8.52222 96.6656 8.58567L94.1647 9.47759C94.0418 9.52138 93.941 9.61352 93.8847 9.73367C93.767 9.9851 93.8728 10.2892 94.1205 10.4125L95.1872 10.9428C95.6953 11.1953 96.2843 11.2089 96.797 10.9791L98.9446 10.0169C99.035 9.97655 99.1411 9.9997 99.2081 10.0746C99.2944 10.1709 99.2884 10.3195 99.1951 10.4064L97.466 12.0148C97.1019 12.3539 96.9004 12.8379 96.9121 13.3437L96.9482 14.8824C96.9514 15.0203 97.0096 15.1519 97.1088 15.2463C97.3109 15.4382 97.6253 15.4279 97.8109 15.2238Z" fill="white"/>
</g>
<g filter="url(#filter2_dd_10559_24550)">
<path fill-rule="evenodd" clip-rule="evenodd" d="M72.5739 27.2538C77.9086 25.8243 81.0744 20.341 79.645 15.0063C78.2156 9.67165 72.7322 6.50583 67.3975 7.93525C62.0629 9.36467 58.8971 14.848 60.3265 20.1827C61.7559 25.5174 67.2393 28.6832 72.5739 27.2538ZM68.8343 22.9894L70.6211 21.0259C70.7503 20.8838 70.9484 20.8311 71.1313 20.89L73.6796 21.7098C73.8065 21.7508 73.9441 21.7381 74.0608 21.6752C74.3016 21.5444 74.3914 21.2382 74.2605 20.99L72.9511 18.5095C72.8637 18.3436 72.8721 18.1426 72.9736 17.9876L74.4796 15.6871C74.5511 15.5774 74.5774 15.4437 74.5535 15.3136C74.5027 15.0377 74.2429 14.8535 73.9731 14.9021L71.3462 15.3762C71.1613 15.4091 70.9728 15.333 70.8587 15.1789L69.2192 12.9589C69.1375 12.8483 69.0155 12.7756 68.8816 12.758C68.6089 12.7221 68.3621 12.9178 68.33 13.1959L68.0139 15.9375C67.9917 16.1277 67.8658 16.2878 67.689 16.3513L65.1881 17.2432C65.0653 17.287 64.9644 17.3791 64.9081 17.4993C64.7905 17.7507 64.8962 18.0548 65.1439 18.1781L66.2106 18.7084C66.7187 18.961 67.3077 18.9746 67.8204 18.7447L69.968 17.7825C70.0584 17.7422 70.1645 17.7653 70.2316 17.8403C70.3178 17.9365 70.3118 18.0852 70.2185 18.1721L68.4895 19.7804C68.1254 20.1195 67.9238 20.6035 67.9355 21.1093L67.9717 22.6481C67.9748 22.786 68.0331 22.9175 68.1322 23.0119C68.3344 23.2038 68.6487 23.1935 68.8343 22.9894Z" fill="white"/>
</g>
<g filter="url(#filter3_dd_10559_24550)">
<path fill-rule="evenodd" clip-rule="evenodd" d="M43.5974 35.0194C48.932 33.59 52.0978 28.1066 50.6684 22.7719C49.239 17.4373 43.7556 14.2715 38.421 15.7009C33.0863 17.1303 29.9205 22.6137 31.3499 27.9483C32.7793 33.283 38.2627 36.4488 43.5974 35.0194ZM39.8578 30.7551L41.6446 28.7915C41.7737 28.6495 41.9718 28.5967 42.1547 28.6556L44.703 29.4755C44.83 29.5164 44.9675 29.5038 45.0842 29.4408C45.3251 29.31 45.4148 29.0038 45.2839 28.7556L43.9745 26.2751C43.8871 26.1092 43.8956 25.9082 43.9971 25.7532L45.503 23.4527C45.5745 23.3431 45.6008 23.2093 45.5769 23.0793C45.5261 22.8033 45.2664 22.6192 44.9966 22.6677L42.3696 23.1418C42.1847 23.1748 41.9963 23.0987 41.8822 22.9445L40.2426 20.7245C40.161 20.6139 40.0389 20.5412 39.905 20.5237C39.6324 20.4877 39.3856 20.6834 39.3534 20.9616L39.0374 23.7031C39.0152 23.8933 38.8893 24.0535 38.7124 24.1169L36.2116 25.0088C36.0887 25.0526 35.9879 25.1448 35.9316 25.2649C35.8139 25.5164 35.9197 25.8205 36.1673 25.9437L37.2341 26.474C37.7422 26.7266 38.3311 26.7402 38.8438 26.5103L40.9914 25.5481C41.0819 25.5078 41.188 25.531 41.255 25.6059C41.3413 25.7021 41.3353 25.8508 41.2419 25.9377L39.5129 27.546C39.1488 27.8852 38.9472 28.3691 38.9589 28.8749L38.9951 30.4137C38.9983 30.5516 39.0565 30.6832 39.1556 30.7775C39.3578 30.9695 39.6721 30.9592 39.8578 30.7551Z" fill="white"/>
</g>
<g filter="url(#filter4_dd_10559_24550)">
<path fill-rule="evenodd" clip-rule="evenodd" d="M14.6169 42.785C19.9515 41.3556 23.1174 35.8722 21.688 30.5376C20.2585 25.2029 14.7752 22.0371 9.44051 23.4665C4.10585 24.8959 0.940022 30.3793 2.36944 35.7139C3.79886 41.0486 9.28223 44.2144 14.6169 42.785ZM10.8773 38.5207L12.6641 36.5572C12.7933 36.4151 12.9914 36.3623 13.1742 36.4212L15.7226 37.2411C15.8495 37.282 15.987 37.2694 16.1038 37.2065C16.3446 37.0756 16.4343 36.7694 16.3034 36.5212L14.9941 34.0407C14.9066 33.8749 14.9151 33.6738 15.0166 33.5189L16.5225 31.2184C16.5941 31.1087 16.6204 30.975 16.5965 30.8449C16.5456 30.5689 16.2859 30.3848 16.0161 30.4334L13.3892 30.9074C13.2042 30.9404 13.0158 30.8643 12.9017 30.7101L11.2622 28.4902C11.1805 28.3795 11.0585 28.3069 10.9246 28.2893C10.6519 28.2534 10.4051 28.449 10.3729 28.7272L10.0569 31.4687C10.0347 31.659 9.90879 31.8191 9.73197 31.8825L7.23109 32.7745C7.10823 32.8183 7.0074 32.9104 6.95109 33.0305C6.83345 33.282 6.93919 33.5861 7.18686 33.7093L8.25361 34.2396C8.76169 34.4922 9.35067 34.5058 9.86338 34.2759L12.011 33.3137C12.1014 33.2734 12.2075 33.2966 12.2745 33.3715C12.3608 33.4677 12.3548 33.6164 12.2615 33.7033L10.5324 35.3116C10.1683 35.6508 9.96676 36.1348 9.97848 36.6406L10.0147 38.1793C10.0178 38.3172 10.076 38.4488 10.1752 38.5431C10.3773 38.7351 10.6917 38.7248 10.8773 38.5207Z" fill="white"/>
</g>
<g filter="url(#filter5_dd_10559_24550)">
<path fill-rule="evenodd" clip-rule="evenodd" d="M159.508 3.95689C164.842 2.52747 168.008 -2.9559 166.579 -8.29056C165.149 -13.6252 159.666 -16.791 154.331 -15.3616C148.996 -13.9322 145.831 -8.44884 147.26 -3.11418C148.689 2.22048 154.173 5.38631 159.508 3.95689ZM155.768 -0.307449L157.555 -2.27097C157.684 -2.41304 157.882 -2.46578 158.065 -2.40692L160.613 -1.58703C160.74 -1.54611 160.878 -1.55873 160.994 -1.62166C161.235 -1.7525 161.325 -2.05872 161.194 -2.30689L159.885 -4.78739C159.797 -4.95327 159.806 -5.15429 159.907 -5.30925L161.413 -7.60975C161.485 -7.71945 161.511 -7.85317 161.487 -7.98324C161.436 -8.2592 161.177 -8.44334 160.907 -8.39476L158.28 -7.9207C158.095 -7.88775 157.906 -7.96383 157.792 -8.11798L156.153 -10.338C156.071 -10.4486 155.949 -10.5213 155.815 -10.5388C155.543 -10.5748 155.296 -10.3791 155.264 -10.1009L154.948 -7.3594C154.925 -7.16915 154.799 -7.00903 154.623 -6.94558L152.122 -6.05366C151.999 -6.00987 151.898 -5.91773 151.842 -5.79758C151.724 -5.54615 151.83 -5.24205 152.077 -5.1188L153.144 -4.58848C153.652 -4.33592 154.241 -4.32232 154.754 -4.55218L156.902 -5.5144C156.992 -5.5547 157.098 -5.53155 157.165 -5.45661C157.251 -5.36038 157.245 -5.21171 157.152 -5.12482L155.423 -3.51648C155.059 -3.17734 154.857 -2.69336 154.869 -2.18757L154.905 -0.648804C154.908 -0.510924 154.967 -0.379338 155.066 -0.284987C155.268 -0.0930334 155.582 -0.103333 155.768 -0.307449Z" fill="white"/>
</g>
<g filter="url(#filter6_dd_10559_24550)">
<path fill-rule="evenodd" clip-rule="evenodd" d="M290.949 30.8553C296.284 29.4259 299.449 23.9425 298.02 18.6079C296.591 13.2732 291.107 10.1074 285.773 11.5368C280.438 12.9662 277.272 18.4496 278.701 23.7843C280.131 29.1189 285.614 32.2847 290.949 30.8553ZM287.209 26.591L288.996 24.6275C289.125 24.4854 289.323 24.4327 289.506 24.4915L292.055 25.3114C292.182 25.3523 292.319 25.3397 292.436 25.2768C292.677 25.1459 292.766 24.8397 292.635 24.5915L291.326 22.1111C291.239 21.9452 291.247 21.7441 291.349 21.5892L292.855 19.2887C292.926 19.179 292.952 19.0453 292.928 18.9152C292.878 18.6392 292.618 18.4551 292.348 18.5037L289.721 18.9777C289.536 19.0107 289.348 18.9346 289.234 18.7805L287.594 16.5605C287.513 16.4498 287.391 16.3772 287.257 16.3596C286.984 16.3237 286.737 16.5194 286.705 16.7975L286.389 19.539C286.367 19.7293 286.241 19.8894 286.064 19.9529L283.563 20.8448C283.44 20.8886 283.339 20.9807 283.283 21.1009C283.165 21.3523 283.271 21.6564 283.519 21.7796L284.586 22.31C285.094 22.5625 285.683 22.5761 286.195 22.3463L288.343 21.384C288.433 21.3437 288.54 21.3669 288.607 21.4418C288.693 21.5381 288.687 21.6867 288.593 21.7736L286.864 23.382C286.5 23.7211 286.299 24.2051 286.311 24.7109L286.347 26.2496C286.35 26.3875 286.408 26.5191 286.507 26.6135C286.709 26.8054 287.024 26.7951 287.209 26.591Z" fill="white"/>
</g>
<g filter="url(#filter7_dd_10559_24550)">
<path fill-rule="evenodd" clip-rule="evenodd" d="M319.925 23.0897C325.26 21.6603 328.426 16.1769 326.997 10.8423C325.567 5.50759 320.084 2.34177 314.749 3.77118C309.414 5.2006 306.249 10.684 307.678 16.0186C309.107 21.3533 314.591 24.5191 319.925 23.0897ZM316.186 18.8254L317.973 16.8618C318.102 16.7198 318.3 16.667 318.483 16.7259L321.031 17.5458C321.158 17.5867 321.296 17.5741 321.412 17.5112C321.653 17.3803 321.743 17.0741 321.612 16.8259L320.303 14.3454C320.215 14.1795 320.224 13.9785 320.325 13.8236L321.831 11.5231C321.903 11.4134 321.929 11.2796 321.905 11.1496C321.854 10.8736 321.595 10.6895 321.325 10.738L318.698 11.2121C318.513 11.2451 318.324 11.169 318.21 11.0148L316.571 8.79486C316.489 8.68419 316.367 8.61156 316.233 8.59397C315.96 8.55806 315.714 8.75373 315.682 9.03187L315.365 11.7734C315.343 11.9637 315.217 12.1238 315.041 12.1872L312.54 13.0792C312.417 13.1229 312.316 13.2151 312.26 13.3352C312.142 13.5867 312.248 13.8908 312.495 14.014L313.562 14.5443C314.07 14.7969 314.659 14.8105 315.172 14.5806L317.32 13.6184C317.41 13.5781 317.516 13.6013 317.583 13.6762C317.669 13.7724 317.663 13.9211 317.57 14.008L315.841 15.6163C315.477 15.9555 315.275 16.4395 315.287 16.9452L315.323 18.484C315.326 18.6219 315.385 18.7535 315.484 18.8478C315.686 19.0398 316 19.0295 316.186 18.8254Z" fill="white"/>
</g>
<g filter="url(#filter8_dd_10559_24550)">
<path fill-rule="evenodd" clip-rule="evenodd" d="M261.968 38.621C267.303 37.1915 270.469 31.7082 269.04 26.3735C267.61 21.0388 262.127 17.873 256.792 19.3024C251.457 20.7319 248.292 26.2152 249.721 31.5499C251.15 36.8845 256.634 40.0504 261.968 38.621ZM258.229 34.3566L260.016 32.3931C260.145 32.251 260.343 32.1983 260.526 32.2571L263.074 33.077C263.201 33.118 263.339 33.1053 263.455 33.0424C263.696 32.9116 263.786 32.6053 263.655 32.3572L262.346 29.8767C262.258 29.7108 262.267 29.5098 262.368 29.3548L263.874 27.0543C263.946 26.9446 263.972 26.8109 263.948 26.6808C263.897 26.4049 263.637 26.2207 263.368 26.2693L260.741 26.7434C260.556 26.7763 260.367 26.7002 260.253 26.5461L258.614 24.3261C258.532 24.2154 258.41 24.1428 258.276 24.1252C258.003 24.0893 257.757 24.285 257.725 24.5631L257.408 27.3047C257.386 27.4949 257.26 27.655 257.084 27.7185L254.583 28.6104C254.46 28.6542 254.359 28.7463 254.303 28.8665C254.185 29.1179 254.291 29.422 254.538 29.5453L255.605 30.0756C256.113 30.3281 256.702 30.3417 257.215 30.1119L259.363 29.1497C259.453 29.1094 259.559 29.1325 259.626 29.2075C259.712 29.3037 259.706 29.4524 259.613 29.5392L257.884 31.1476C257.52 31.4867 257.318 31.9707 257.33 32.4765L257.366 34.0153C257.369 34.1531 257.428 34.2847 257.527 34.3791C257.729 34.571 258.043 34.5607 258.229 34.3566Z" fill="white"/>
</g>
<g filter="url(#filter9_dd_10559_24550)">
<path fill-rule="evenodd" clip-rule="evenodd" d="M232.992 46.3866C238.327 44.9572 241.492 39.4738 240.063 34.1391C238.634 28.8045 233.15 25.6386 227.816 27.0681C222.481 28.4975 219.315 33.9808 220.744 39.3155C222.174 44.6502 227.657 47.816 232.992 46.3866ZM229.252 42.1222L231.039 40.1587C231.168 40.0166 231.366 39.9639 231.549 40.0228L234.098 40.8427C234.225 40.8836 234.362 40.871 234.479 40.808C234.72 40.6772 234.809 40.371 234.678 40.1228L233.369 37.6423C233.282 37.4764 233.29 37.2754 233.392 37.1204L234.898 34.8199C234.969 34.7102 234.995 34.5765 234.971 34.4464C234.921 34.1705 234.661 33.9863 234.391 34.0349L231.764 34.509C231.579 34.5419 231.391 34.4659 231.277 34.3117L229.637 32.0917C229.556 31.9811 229.433 31.9084 229.3 31.8908C229.027 31.8549 228.78 32.0506 228.748 32.3287L228.432 35.0703C228.41 35.2605 228.284 35.4207 228.107 35.4841L225.606 36.376C225.483 36.4198 225.382 36.512 225.326 36.6321C225.208 36.8835 225.314 37.1876 225.562 37.3109L226.629 37.8412C227.137 38.0938 227.726 38.1074 228.238 37.8775L230.386 36.9153C230.476 36.875 230.582 36.8981 230.65 36.9731C230.736 37.0693 230.73 37.218 230.636 37.3049L228.907 38.9132C228.543 39.2523 228.342 39.7363 228.353 40.2421L228.39 41.7809C228.393 41.9188 228.451 42.0503 228.55 42.1447C228.752 42.3367 229.067 42.3264 229.252 42.1222Z" fill="white"/>
</g>
<g filter="url(#filter10_dd_10559_24550)">
<path fill-rule="evenodd" clip-rule="evenodd" d="M204.015 54.1522C209.35 52.7228 212.516 47.2394 211.086 41.9048C209.657 36.5701 204.174 33.4043 198.839 34.8337C193.504 36.2631 190.338 41.7465 191.768 47.0811C193.197 52.4158 198.681 55.5816 204.015 54.1522ZM200.276 49.8879L202.063 47.9243C202.192 47.7823 202.39 47.7295 202.573 47.7884L205.121 48.6083C205.248 48.6492 205.385 48.6366 205.502 48.5737C205.743 48.4428 205.833 48.1366 205.702 47.8884L204.393 45.4079C204.305 45.242 204.314 45.041 204.415 44.8861L205.921 42.5856C205.993 42.4759 206.019 42.3421 205.995 42.2121C205.944 41.9361 205.684 41.752 205.415 41.8005L202.788 42.2746C202.603 42.3076 202.414 42.2315 202.3 42.0773L200.661 39.8574C200.579 39.7467 200.457 39.6741 200.323 39.6565C200.05 39.6206 199.804 39.8162 199.771 40.0944L199.455 42.8359C199.433 43.0262 199.307 43.1863 199.13 43.2497L196.63 44.1417C196.507 44.1854 196.406 44.2776 196.35 44.3977C196.232 44.6492 196.338 44.9533 196.585 45.0765L197.652 45.6068C198.16 45.8594 198.749 45.873 199.262 45.6431L201.409 44.6809C201.5 44.6406 201.606 44.6638 201.673 44.7387C201.759 44.8349 201.753 44.9836 201.66 45.0705L199.931 46.6788C199.567 47.018 199.365 47.502 199.377 48.0077L199.413 49.5465C199.416 49.6844 199.474 49.816 199.574 49.9103C199.776 50.1023 200.09 50.092 200.276 49.8879Z" fill="white"/>
</g>
<g filter="url(#filter11_dd_10559_24550)">
<path fill-rule="evenodd" clip-rule="evenodd" d="M152.781 36.8163C158.116 35.3868 161.281 29.9035 159.852 24.5688C158.423 19.2342 152.939 16.0683 147.605 17.4977C142.27 18.9272 139.104 24.4105 140.534 29.7452C141.963 35.0799 147.446 38.2457 152.781 36.8163ZM149.041 32.5519L150.828 30.5884C150.957 30.4463 151.155 30.3936 151.338 30.4525L153.887 31.2723C154.014 31.3133 154.151 31.3006 154.268 31.2377C154.509 31.1069 154.598 30.8007 154.467 30.5525L153.158 28.072C153.071 27.9061 153.079 27.7051 153.181 27.5501L154.687 25.2496C154.758 25.1399 154.784 25.0062 154.761 24.8761C154.71 24.6002 154.45 24.416 154.18 24.4646L151.553 24.9387C151.368 24.9716 151.18 24.8955 151.066 24.7414L149.426 22.5214C149.345 22.4108 149.223 22.3381 149.089 22.3205C148.816 22.2846 148.569 22.4803 148.537 22.7584L148.221 25.5C148.199 25.6902 148.073 25.8503 147.896 25.9138L145.395 26.8057C145.272 26.8495 145.171 26.9416 145.115 27.0618C144.998 27.3132 145.103 27.6173 145.351 27.7406L146.418 28.2709C146.926 28.5235 147.515 28.5371 148.027 28.3072L150.175 27.345C150.265 27.3047 150.372 27.3278 150.439 27.4028C150.525 27.499 150.519 27.6477 150.426 27.7346L148.696 29.3429C148.332 29.682 148.131 30.166 148.143 30.6718L148.179 32.2106C148.182 32.3485 148.24 32.48 148.339 32.5744C148.541 32.7663 148.856 32.756 149.041 32.5519Z" fill="white"/>
</g>
<g filter="url(#filter12_dd_10559_24550)">
<path fill-rule="evenodd" clip-rule="evenodd" d="M348.902 15.3241C354.237 13.8947 357.403 8.41129 355.973 3.07663C354.544 -2.25803 349.06 -5.42386 343.726 -3.99444C338.391 -2.56502 335.225 2.91835 336.655 8.25301C338.084 13.5877 343.567 16.7535 348.902 15.3241ZM345.162 11.0597L346.949 9.09621C347.078 8.95415 347.277 8.90141 347.459 8.96027L350.008 9.78015C350.135 9.82108 350.272 9.80846 350.389 9.74553C350.63 9.61469 350.719 9.30847 350.589 9.06029L349.279 6.5798C349.192 6.41392 349.2 6.2129 349.302 6.05793L350.808 3.75743C350.879 3.64774 350.906 3.51402 350.882 3.38395C350.831 3.10799 350.571 2.92385 350.301 2.97242L347.674 3.44649C347.489 3.47944 347.301 3.40336 347.187 3.24921L345.547 1.02923C345.466 0.91857 345.344 0.845931 345.21 0.82835C344.937 0.792431 344.69 0.988108 344.658 1.26624L344.342 4.00779C344.32 4.19803 344.194 4.35816 344.017 4.42161L341.516 5.31353C341.393 5.35732 341.293 5.44946 341.236 5.5696C341.119 5.82104 341.224 6.12514 341.472 6.24839L342.539 6.77871C343.047 7.03127 343.636 7.04487 344.149 6.81501L346.296 5.85279C346.387 5.81248 346.493 5.83564 346.56 5.91058C346.646 6.0068 346.64 6.15548 346.547 6.24237L344.818 7.85071C344.453 8.18984 344.252 8.67383 344.264 9.17962L344.3 10.7184C344.303 10.8563 344.361 10.9878 344.46 11.0822C344.663 11.2742 344.977 11.2639 345.162 11.0597Z" fill="white"/>
</g>
<g filter="url(#filter13_dd_10559_24550)">
<path fill-rule="evenodd" clip-rule="evenodd" d="M342.179 48.1835C347.514 46.754 350.68 41.2707 349.25 35.936C347.821 30.6013 342.338 27.4355 337.003 28.8649C331.668 30.2944 328.503 35.7777 329.932 41.1124C331.361 46.447 336.845 49.6129 342.179 48.1835ZM338.44 43.9191L340.227 41.9556C340.356 41.8135 340.554 41.7608 340.737 41.8196L343.285 42.6395C343.412 42.6805 343.55 42.6678 343.666 42.6049C343.907 42.4741 343.997 42.1678 343.866 41.9197L342.557 39.4392C342.469 39.2733 342.478 39.0723 342.579 38.9173L344.085 36.6168C344.157 36.5071 344.183 36.3734 344.159 36.2433C344.108 35.9674 343.848 35.7832 343.579 35.8318L340.952 36.3059C340.767 36.3388 340.578 36.2627 340.464 36.1086L338.825 33.8886C338.743 33.7779 338.621 33.7053 338.487 33.6877C338.214 33.6518 337.968 33.8475 337.935 34.1256L337.619 36.8672C337.597 37.0574 337.471 37.2175 337.294 37.281L334.794 38.1729C334.671 38.2167 334.57 38.3088 334.514 38.429C334.396 38.6804 334.502 38.9845 334.749 39.1078L335.816 39.6381C336.324 39.8906 336.913 39.9042 337.426 39.6744L339.573 38.7122C339.664 38.6719 339.77 38.695 339.837 38.77C339.923 38.8662 339.917 39.0149 339.824 39.1017L338.095 40.7101C337.731 41.0492 337.529 41.5332 337.541 42.039L337.577 43.5778C337.58 43.7156 337.639 43.8472 337.738 43.9416C337.94 44.1335 338.254 44.1232 338.44 43.9191Z" fill="white"/>
</g>
<path fill-rule="evenodd" clip-rule="evenodd" d="M297.672 -2.00405C303.006 -3.43347 306.172 -8.91684 304.743 -14.2515C303.313 -19.5862 297.83 -22.752 292.495 -21.3226C287.161 -19.8931 283.995 -14.4098 285.424 -9.07512C286.854 -3.74046 292.337 -0.574631 297.672 -2.00405ZM293.932 -6.26839L295.719 -8.23191C295.848 -8.37398 296.046 -8.42671 296.229 -8.36785L298.777 -7.54797C298.904 -7.50704 299.042 -7.51966 299.158 -7.5826C299.399 -7.71344 299.489 -8.01966 299.358 -8.26783L298.049 -10.7483C297.961 -10.9142 297.97 -11.1152 298.071 -11.2702L299.577 -13.5707C299.649 -13.6804 299.675 -13.8141 299.651 -13.9442C299.6 -14.2201 299.341 -14.4043 299.071 -14.3557L296.444 -13.8816C296.259 -13.8487 296.07 -13.9248 295.956 -14.0789L294.317 -16.2989C294.235 -16.4096 294.113 -16.4822 293.979 -16.4998C293.707 -16.5357 293.46 -16.34 293.428 -16.0619L293.112 -13.3203C293.089 -13.1301 292.963 -12.97 292.787 -12.9065L290.286 -12.0146C290.163 -11.9708 290.062 -11.8787 290.006 -11.7585C289.888 -11.5071 289.994 -11.203 290.242 -11.0797L291.308 -10.5494C291.816 -10.2969 292.405 -10.2833 292.918 -10.5131L295.066 -11.4753C295.156 -11.5156 295.262 -11.4925 295.329 -11.4175C295.415 -11.3213 295.409 -11.1726 295.316 -11.0858L293.587 -9.47741C293.223 -9.13828 293.021 -8.6543 293.033 -8.14851L293.069 -6.60974C293.072 -6.47186 293.131 -6.34028 293.23 -6.24592C293.432 -6.05397 293.746 -6.06427 293.932 -6.26839Z" fill="white"/>
<g filter="url(#filter15_dd_10559_24550)">
<path fill-rule="evenodd" clip-rule="evenodd" d="M123.804 44.5819C129.139 43.1525 132.305 37.6691 130.875 32.3344C129.446 26.9998 123.963 23.834 118.628 25.2634C113.293 26.6928 110.128 32.1762 111.557 37.5108C112.986 42.8455 118.47 46.0113 123.804 44.5819ZM120.065 40.3176L121.852 38.354C121.981 38.212 122.179 38.1592 122.362 38.2181L124.91 39.038C125.037 39.0789 125.175 39.0663 125.291 39.0033C125.532 38.8725 125.622 38.5663 125.491 38.3181L124.182 35.8376C124.094 35.6717 124.103 35.4707 124.204 35.3157L125.71 33.0152C125.782 32.9056 125.808 32.7718 125.784 32.6418C125.733 32.3658 125.473 32.1817 125.204 32.2302L122.577 32.7043C122.392 32.7373 122.203 32.6612 122.089 32.507L120.45 30.287C120.368 30.1764 120.246 30.1037 120.112 30.0862C119.839 30.0502 119.593 30.2459 119.56 30.5241L119.244 33.2656C119.222 33.4558 119.096 33.616 118.919 33.6794L116.419 34.5713C116.296 34.6151 116.195 34.7073 116.139 34.8274C116.021 35.0789 116.127 35.383 116.374 35.5062L117.441 36.0365C117.949 36.2891 118.538 36.3027 119.051 36.0728L121.198 35.1106C121.289 35.0703 121.395 35.0935 121.462 35.1684C121.548 35.2646 121.542 35.4133 121.449 35.5002L119.72 37.1085C119.356 37.4477 119.154 37.9316 119.166 38.4374L119.202 39.9762C119.205 40.1141 119.264 40.2457 119.363 40.34C119.565 40.532 119.879 40.5217 120.065 40.3176Z" fill="white"/>
</g>
<g filter="url(#filter16_dd_10559_24550)">
<path fill-rule="evenodd" clip-rule="evenodd" d="M268.695 5.76158C274.03 4.33216 277.195 -1.15121 275.766 -6.48587C274.337 -11.8205 268.853 -14.9864 263.519 -13.5569C258.184 -12.1275 255.018 -6.64415 256.448 -1.30949C257.877 4.02517 263.36 7.19099 268.695 5.76158ZM264.955 1.49724L266.742 -0.466286C266.871 -0.608351 267.069 -0.661089 267.252 -0.602229L269.801 0.217655C269.928 0.25858 270.065 0.245962 270.182 0.183025C270.423 0.0521889 270.512 -0.254033 270.382 -0.502205L269.072 -2.9827C268.985 -3.14858 268.993 -3.3496 269.095 -3.50457L270.601 -5.80507C270.672 -5.91476 270.698 -6.04848 270.675 -6.17855C270.624 -6.45451 270.364 -6.63865 270.094 -6.59008L267.467 -6.11601C267.282 -6.08306 267.094 -6.15914 266.98 -6.31329L265.34 -8.53327C265.259 -8.64393 265.137 -8.71657 265.003 -8.73415C264.73 -8.77007 264.483 -8.57439 264.451 -8.29626L264.135 -5.55471C264.113 -5.36447 263.987 -5.20434 263.81 -5.14089L261.309 -4.24897C261.186 -4.20518 261.086 -4.11304 261.029 -3.9929C260.912 -3.74146 261.017 -3.43736 261.265 -3.31411L262.332 -2.78379C262.84 -2.53123 263.429 -2.51763 263.942 -2.74749L266.089 -3.70971C266.18 -3.75002 266.286 -3.72686 266.353 -3.65192C266.439 -3.5557 266.433 -3.40702 266.34 -3.32013L264.611 -1.71179C264.246 -1.37266 264.045 -0.888671 264.057 -0.382883L264.093 1.15588C264.096 1.29376 264.154 1.42535 264.253 1.5197C264.455 1.71165 264.77 1.70135 264.955 1.49724Z" fill="white"/>
</g>
<g filter="url(#filter17_dd_10559_24550)">
<path fill-rule="evenodd" clip-rule="evenodd" d="M94.8278 52.3475C100.162 50.9181 103.328 45.4347 101.899 40.1001C100.469 34.7654 94.9861 31.5996 89.6514 33.029C84.3168 34.4584 81.151 39.9418 82.5804 45.2764C84.0098 50.6111 89.4932 53.7769 94.8278 52.3475ZM91.0883 48.0832L92.8751 46.1197C93.0042 45.9776 93.2023 45.9248 93.3852 45.9837L95.9335 46.8036C96.0604 46.8445 96.198 46.8319 96.3147 46.769C96.5556 46.6381 96.6453 46.3319 96.5144 46.0837L95.205 43.6032C95.1176 43.4374 95.126 43.2363 95.2276 43.0814L96.7335 40.7809C96.805 40.6712 96.8313 40.5375 96.8074 40.4074C96.7566 40.1314 96.4969 39.9473 96.227 39.9959L93.6001 40.4699C93.4152 40.5029 93.2267 40.4268 93.1126 40.2726L91.4731 38.0527C91.3914 37.942 91.2694 37.8694 91.1355 37.8518C90.8628 37.8159 90.6161 38.0115 90.5839 38.2897L90.2678 41.0312C90.2456 41.2215 90.1197 41.3816 89.9429 41.445L87.442 42.337C87.3192 42.3808 87.2183 42.4729 87.162 42.593C87.0444 42.8445 87.1501 43.1486 87.3978 43.2718L88.4646 43.8021C88.9726 44.0547 89.5616 44.0683 90.0743 43.8384L92.2219 42.8762C92.3123 42.8359 92.4184 42.8591 92.4855 42.934C92.5717 43.0302 92.5657 43.1789 92.4724 43.2658L90.7434 44.8741C90.3793 45.2133 90.1777 45.6973 90.1894 46.2031L90.2256 47.7418C90.2287 47.8797 90.287 48.0113 90.3861 48.1056C90.5883 48.2976 90.9026 48.2873 91.0883 48.0832Z" fill="white"/>
</g>
<g filter="url(#filter18_dd_10559_24550)">
<path fill-rule="evenodd" clip-rule="evenodd" d="M239.715 13.5272C245.049 12.0978 248.215 6.61441 246.786 1.27975C245.356 -4.05491 239.873 -7.22073 234.538 -5.79132C229.204 -4.3619 226.038 1.12147 227.467 6.45613C228.897 11.7908 234.38 14.9566 239.715 13.5272ZM235.975 9.26286L237.762 7.29934C237.891 7.15727 238.089 7.10454 238.272 7.1634L240.82 7.98328C240.947 8.02421 241.085 8.01159 241.201 7.94865C241.442 7.81781 241.532 7.51159 241.401 7.26342L240.092 4.78293C240.004 4.61705 240.013 4.41602 240.114 4.26106L241.62 1.96056C241.692 1.85087 241.718 1.71715 241.694 1.58707C241.643 1.31112 241.384 1.12697 241.114 1.17555L238.487 1.64962C238.302 1.68256 238.113 1.60649 237.999 1.45233L236.36 -0.767644C236.278 -0.878305 236.156 -0.950944 236.022 -0.968525C235.75 -1.00444 235.503 -0.808767 235.471 -0.530631L235.155 2.21091C235.132 2.40116 235.006 2.56128 234.83 2.62473L232.329 3.51665C232.206 3.56044 232.105 3.65258 232.049 3.77273C231.931 4.02417 232.037 4.32827 232.285 4.45152L233.351 4.98183C233.859 5.23439 234.448 5.248 234.961 5.01813L237.109 4.05591C237.199 4.01561 237.305 4.03876 237.372 4.1137C237.458 4.20993 237.452 4.35861 237.359 4.44549L235.63 6.05384C235.266 6.39297 235.064 6.87695 235.076 7.38274L235.112 8.92151C235.115 9.05939 235.174 9.19097 235.273 9.28533C235.475 9.47728 235.789 9.46698 235.975 9.26286Z" fill="white"/>
</g>
<path fill-rule="evenodd" clip-rule="evenodd" d="M65.8513 60.1131C71.1859 58.6837 74.3517 53.2004 72.9223 47.8657C71.4929 42.531 66.0095 39.3652 60.6749 40.7946C55.3402 42.224 52.1744 47.7074 53.6038 53.0421C55.0332 58.3767 60.5166 61.5426 65.8513 60.1131ZM62.1117 55.8488L63.8985 53.8853C64.0276 53.7432 64.2257 53.6905 64.4086 53.7493L66.9569 54.5692C67.0839 54.6101 67.2214 54.5975 67.3382 54.5346C67.579 54.4038 67.6687 54.0975 67.5378 53.8494L66.2284 51.3689C66.141 51.203 66.1495 51.002 66.251 50.847L67.7569 48.5465C67.8284 48.4368 67.8547 48.3031 67.8308 48.173C67.78 47.8971 67.5203 47.7129 67.2505 47.7615L64.6235 48.2356C64.4386 48.2685 64.2502 48.1924 64.1361 48.0383L62.4965 45.8183C62.4149 45.7076 62.2929 45.635 62.1589 45.6174C61.8863 45.5815 61.6395 45.7772 61.6073 46.0553L61.2913 48.7968C61.2691 48.9871 61.1432 49.1472 60.9663 49.2107L58.4655 50.1026C58.3426 50.1464 58.2418 50.2385 58.1855 50.3587C58.0678 50.6101 58.1736 50.9142 58.4212 51.0375L59.488 51.5678C59.9961 51.8203 60.585 51.8339 61.0978 51.6041L63.2453 50.6419C63.3358 50.6015 63.4419 50.6247 63.5089 50.6996C63.5952 50.7959 63.5892 50.9445 63.4958 51.0314L61.7668 52.6398C61.4027 52.9789 61.2011 53.4629 61.2129 53.9687L61.249 55.5074C61.2522 55.6453 61.3104 55.7769 61.4095 55.8713C61.6117 56.0632 61.926 56.0529 62.1117 55.8488Z" fill="white"/>
<path fill-rule="evenodd" clip-rule="evenodd" d="M371.156 40.4256C376.491 38.9962 379.656 33.5129 378.227 28.1782C376.798 22.8435 371.314 19.6777 365.98 21.1071C360.645 22.5365 357.479 28.0199 358.909 33.3546C360.338 38.6892 365.821 41.8551 371.156 40.4256ZM367.416 36.1613L369.203 34.1978C369.332 34.0557 369.53 34.003 369.713 34.0618L372.262 34.8817C372.389 34.9226 372.526 34.91 372.643 34.8471C372.884 34.7163 372.973 34.41 372.842 34.1619L371.533 31.6814C371.446 31.5155 371.454 31.3145 371.556 31.1595L373.062 28.859C373.133 28.7493 373.159 28.6156 373.136 28.4855C373.085 28.2096 372.825 28.0254 372.555 28.074L369.928 28.5481C369.743 28.581 369.555 28.5049 369.441 28.3508L367.801 26.1308C367.72 26.0201 367.598 25.9475 367.464 25.9299C367.191 25.894 366.944 26.0897 366.912 26.3678L366.596 29.1093C366.574 29.2996 366.448 29.4597 366.271 29.5232L363.77 30.4151C363.647 30.4589 363.546 30.551 363.49 30.6712C363.373 30.9226 363.478 31.2267 363.726 31.35L364.793 31.8803C365.301 32.1328 365.89 32.1464 366.402 31.9166L368.55 30.9544C368.64 30.914 368.747 30.9372 368.814 31.0121C368.9 31.1084 368.894 31.257 368.801 31.3439L367.071 32.9523C366.707 33.2914 366.506 33.7754 366.518 34.2812L366.554 35.8199C366.557 35.9578 366.615 36.0894 366.714 36.1838C366.916 36.3757 367.231 36.3654 367.416 36.1613Z" fill="white"/>
<g filter="url(#filter21_dd_10559_24550)">
<path fill-rule="evenodd" clip-rule="evenodd" d="M313.199 55.9491C318.534 54.5197 321.699 49.0363 320.27 43.7016C318.841 38.367 313.357 35.2011 308.023 36.6306C302.688 38.06 299.522 43.5433 300.951 48.878C302.381 54.2127 307.864 57.3785 313.199 55.9491ZM309.459 51.6847L311.246 49.7212C311.375 49.5791 311.573 49.5264 311.756 49.5853L314.305 50.4052C314.432 50.4461 314.569 50.4335 314.686 50.3705C314.927 50.2397 315.016 49.9335 314.885 49.6853L313.576 47.2048C313.489 47.0389 313.497 46.8379 313.599 46.6829L315.105 44.3824C315.176 44.2727 315.202 44.139 315.178 44.0089C315.128 43.733 314.868 43.5488 314.598 43.5974L311.971 44.0715C311.786 44.1044 311.598 44.0284 311.484 43.8742L309.844 41.6542C309.763 41.5436 309.641 41.4709 309.507 41.4533C309.234 41.4174 308.987 41.6131 308.955 41.8912L308.639 44.6328C308.617 44.823 308.491 44.9832 308.314 45.0466L305.813 45.9385C305.69 45.9823 305.589 46.0745 305.533 46.1946C305.415 46.446 305.521 46.7501 305.769 46.8734L306.836 47.4037C307.344 47.6563 307.933 47.6699 308.445 47.44L310.593 46.4778C310.683 46.4375 310.79 46.4606 310.857 46.5356C310.943 46.6318 310.937 46.7805 310.843 46.8674L309.114 48.4757C308.75 48.8148 308.549 49.2988 308.561 49.8046L308.597 51.3434C308.6 51.4813 308.658 51.6128 308.757 51.7072C308.959 51.8992 309.274 51.8889 309.459 51.6847Z" fill="white"/>
</g>
<g filter="url(#filter22_dd_10559_24550)">
<path fill-rule="evenodd" clip-rule="evenodd" d="M210.738 21.2928C216.073 19.8634 219.238 14.38 217.809 9.04538C216.38 3.71072 210.896 0.544892 205.562 1.97431C200.227 3.40373 197.061 8.8871 198.491 14.2218C199.92 19.5564 205.403 22.7222 210.738 21.2928ZM206.998 17.0285L208.785 15.065C208.914 14.9229 209.112 14.8702 209.295 14.929L211.844 15.7489C211.971 15.7898 212.108 15.7772 212.225 15.7143C212.466 15.5834 212.555 15.2772 212.425 15.029L211.115 12.5486C211.028 12.3827 211.036 12.1816 211.138 12.0267L212.644 9.72618C212.715 9.61649 212.741 9.48277 212.718 9.3527C212.667 9.07674 212.407 8.8926 212.137 8.94117L209.51 9.41524C209.325 9.44819 209.137 9.37211 209.023 9.21796L207.383 6.99798C207.302 6.88732 207.18 6.81468 207.046 6.7971C206.773 6.76118 206.526 6.95686 206.494 7.23499L206.178 9.97654C206.156 10.1668 206.03 10.3269 205.853 10.3904L203.352 11.2823C203.229 11.3261 203.128 11.4182 203.072 11.5384C202.955 11.7898 203.06 12.0939 203.308 12.2171L204.375 12.7475C204.883 13 205.472 13.0136 205.984 12.7838L208.132 11.8215C208.222 11.7812 208.329 11.8044 208.396 11.8793C208.482 11.9756 208.476 12.1242 208.383 12.2111L206.654 13.8195C206.289 14.1586 206.088 14.6426 206.1 15.1484L206.136 16.6871C206.139 16.825 206.197 16.9566 206.296 17.051C206.498 17.2429 206.813 17.2326 206.998 17.0285Z" fill="white"/>
</g>
<g filter="url(#filter23_dd_10559_24550)">
<path fill-rule="evenodd" clip-rule="evenodd" d="M181.761 29.0506C187.096 27.6212 190.262 22.1379 188.832 16.8032C187.403 11.4685 181.92 8.3027 176.585 9.73212C171.25 11.1615 168.085 16.6449 169.514 21.9796C170.943 27.3142 176.427 30.4801 181.761 29.0506ZM178.022 24.7863L179.809 22.8228C179.938 22.6807 180.136 22.628 180.319 22.6868L182.867 23.5067C182.994 23.5476 183.132 23.535 183.248 23.4721C183.489 23.3413 183.579 23.035 183.448 22.7869L182.139 20.3064C182.051 20.1405 182.06 19.9395 182.161 19.7845L183.667 17.484C183.739 17.3743 183.765 17.2406 183.741 17.1105C183.69 16.8346 183.43 16.6504 183.161 16.699L180.534 17.1731C180.349 17.206 180.16 17.1299 180.046 16.9758L178.407 14.7558C178.325 14.6451 178.203 14.5725 178.069 14.5549C177.796 14.519 177.55 14.7147 177.517 14.9928L177.201 17.7343C177.179 17.9246 177.053 18.0847 176.877 18.1482L174.376 19.0401C174.253 19.0839 174.152 19.176 174.096 19.2962C173.978 19.5476 174.084 19.8517 174.331 19.975L175.398 20.5053C175.906 20.7578 176.495 20.7714 177.008 20.5416L179.156 19.5794C179.246 19.539 179.352 19.5622 179.419 19.6371C179.505 19.7334 179.499 19.882 179.406 19.9689L177.677 21.5773C177.313 21.9164 177.111 22.4004 177.123 22.9062L177.159 24.4449C177.162 24.5828 177.221 24.7144 177.32 24.8088C177.522 25.0007 177.836 24.9904 178.022 24.7863Z" fill="white"/>
</g>
<g filter="url(#filter24_dd_10559_24550)">
<path fill-rule="evenodd" clip-rule="evenodd" d="M50.32 2.16001C55.6547 0.730595 58.8205 -4.75277 57.3911 -10.0874C55.9617 -15.4221 50.4783 -18.5879 45.1436 -17.1585C39.809 -15.7291 36.6431 -10.2457 38.0726 -4.91105C39.502 0.423606 44.9854 3.58943 50.32 2.16001ZM46.5804 -2.10432L48.3672 -4.06785C48.4964 -4.20991 48.6945 -4.26265 48.8774 -4.20379L51.4257 -3.38391C51.5526 -3.34298 51.6902 -3.3556 51.8069 -3.41854C52.0477 -3.54937 52.1375 -3.8556 52.0066 -4.10377L50.6972 -6.58426C50.6098 -6.75014 50.6182 -6.95116 50.7197 -7.10613L52.2256 -9.40663C52.2972 -9.51632 52.3235 -9.65004 52.2996 -9.78012C52.2488 -10.0561 51.989 -10.2402 51.7192 -10.1916L49.0923 -9.71757C48.9073 -9.68462 48.7189 -9.7607 48.6048 -9.91485L46.9653 -12.1348C46.8836 -12.2455 46.7616 -12.3181 46.6277 -12.3357C46.355 -12.3716 46.1082 -12.176 46.0761 -11.8978L45.76 -9.15628C45.7378 -8.96603 45.6119 -8.8059 45.4351 -8.74246L42.9342 -7.85054C42.8114 -7.80675 42.7105 -7.71461 42.6542 -7.59446C42.5366 -7.34302 42.6423 -7.03892 42.89 -6.91567L43.9567 -6.38535C44.4648 -6.1328 45.0538 -6.11919 45.5665 -6.34905L47.7141 -7.31127C47.8045 -7.35158 47.9106 -7.32842 47.9777 -7.25349C48.0639 -7.15726 48.0579 -7.00858 47.9646 -6.9217L46.2355 -5.31335C45.8715 -4.97422 45.6699 -4.49023 45.6816 -3.98445L45.7178 -2.44568C45.7209 -2.3078 45.7791 -2.17621 45.8783 -2.08186C46.0805 -1.88991 46.3948 -1.90021 46.5804 -2.10432Z" fill="white"/>
</g>
<g filter="url(#filter25_dd_10559_24550)">
<path fill-rule="evenodd" clip-rule="evenodd" d="M21.3435 9.91783C26.6781 8.48841 29.8439 3.00504 28.4145 -2.32962C26.9851 -7.66428 21.5017 -10.8301 16.1671 -9.40069C10.8324 -7.97127 7.66658 -2.4879 9.096 2.84676C10.5254 8.18142 16.0088 11.3472 21.3435 9.91783ZM17.6039 5.65349L19.3907 3.68996C19.5198 3.5479 19.7179 3.49516 19.9008 3.55402L22.4491 4.3739C22.5761 4.41483 22.7136 4.40221 22.8303 4.33928C23.0712 4.20844 23.1609 3.90222 23.03 3.65404L21.7206 1.17355C21.6332 1.00767 21.6417 0.806649 21.7432 0.651685L23.2491 -1.64882C23.3206 -1.75851 23.3469 -1.89223 23.323 -2.0223C23.2722 -2.29826 23.0125 -2.4824 22.7427 -2.43383L20.1157 -1.95976C19.9308 -1.92681 19.7424 -2.00289 19.6282 -2.15704L17.9887 -4.37702C17.9071 -4.48768 17.785 -4.56032 17.6511 -4.5779C17.3785 -4.61382 17.1317 -4.41814 17.0995 -4.14001L16.7835 -1.39846C16.7613 -1.20822 16.6353 -1.04809 16.4585 -0.984644L13.9577 -0.0927229C13.8348 -0.0489344 13.734 0.043206 13.6776 0.163353C13.56 0.41479 13.6658 0.718892 13.9134 0.842141L14.9802 1.37246C15.4883 1.62502 16.0772 1.63862 16.5899 1.40876L18.7375 0.44654C18.8279 0.406234 18.9341 0.429389 19.0011 0.504327C19.0874 0.600554 19.0813 0.749231 18.988 0.836116L17.259 2.44446C16.8949 2.78359 16.6933 3.26758 16.705 3.77337L16.7412 5.31213C16.7443 5.45001 16.8026 5.5816 16.9017 5.67595C17.1039 5.8679 17.4182 5.8576 17.6039 5.65349Z" fill="white"/>
</g>
<path fill-rule="evenodd" clip-rule="evenodd" d="M-7.63702 17.6835C-2.30236 16.254 0.863468 10.7707 -0.56595 5.436C-1.99537 0.101341 -7.47874 -3.06448 -12.8134 -1.63507C-18.1481 -0.205647 -21.3139 5.27772 -19.8845 10.6124C-18.455 15.947 -12.9717 19.1129 -7.63702 17.6835ZM-11.3766 13.4191L-9.58979 11.4556C-9.46064 11.3135 -9.26255 11.2608 -9.07967 11.3196L-6.53135 12.1395C-6.4044 12.1805 -6.26688 12.1678 -6.15013 12.1049C-5.90929 11.9741 -5.81957 11.6678 -5.95048 11.4197L-7.25983 8.93918C-7.34727 8.7733 -7.33881 8.57227 -7.23729 8.41731L-5.73138 6.11681C-5.65984 6.00712 -5.63354 5.8734 -5.65744 5.74332C-5.70827 5.46737 -5.96799 5.28322 -6.2378 5.3318L-8.86475 5.80587C-9.04968 5.83881 -9.23812 5.76274 -9.35222 5.60858L-10.9917 3.38861C-11.0734 3.27794 -11.1954 3.20531 -11.3293 3.18772C-11.602 3.15181 -11.8488 3.34748 -11.881 3.62562L-12.197 6.36716C-12.2192 6.55741 -12.3451 6.71753 -12.5219 6.78098L-15.0228 7.6729C-15.1457 7.71669 -15.2465 7.80883 -15.3028 7.92898C-15.4205 8.18042 -15.3147 8.48452 -15.067 8.60777L-14.0003 9.13808C-13.4922 9.39064 -12.9032 9.40425 -12.3905 9.17438L-10.2429 8.21216C-10.1525 8.17186 -10.0464 8.19501 -9.97937 8.26995C-9.89312 8.36618 -9.89912 8.51486 -9.99245 8.60174L-11.7215 10.2101C-12.0856 10.5492 -12.2871 11.0332 -12.2754 11.539L-12.2393 13.0778C-12.2361 13.2156 -12.1779 13.3472 -12.0787 13.4416C-11.8766 13.6335 -11.5622 13.6232 -11.3766 13.4191Z" fill="white"/>
</g>
<g opacity="0.8" filter="url(#filter27_f_10559_24550)">
<ellipse cx="179" cy="20" rx="80" ry="40" fill="#8086F5"/>
</g>
</g>
<path d="M1.61803 1H356.382L347.106 19.5528L346.882 20L347.106 20.4472L356.382 39H1.61803L10.8944 20.4472L11.118 20L10.8944 19.5528L1.61803 1Z" stroke="url(#paint2_linear_10559_24550)" stroke-width="2"/>
</g>
<defs>
<filter id="filter0_dd_10559_24550" x="117.94" y="-7.9375" width="20.0049" height="21" filterUnits="userSpaceOnUse" color-interpolation-filters="sRGB">
<feFlood flood-opacity="0" result="BackgroundImageFix"/>
<feColorMatrix in="SourceAlpha" type="matrix" values="0 0 0 0 0 0 0 0 0 0 0 0 0 0 0 0 0 0 127 0" result="hardAlpha"/>
<feOffset dy="0.769231"/>
<feComposite in2="hardAlpha" operator="out"/>
<feColorMatrix type="matrix" values="0 0 0 0 0 0 0 0 0 0 0 0 0 0 0 0 0 0 0.5 0"/>
<feBlend mode="normal" in2="BackgroundImageFix" result="effect1_dropShadow_10559_24550"/>
<feColorMatrix in="SourceAlpha" type="matrix" values="0 0 0 0 0 0 0 0 0 0 0 0 0 0 0 0 0 0 127 0" result="hardAlpha"/>
<feOffset dy="1"/>
<feComposite in2="hardAlpha" operator="out"/>
<feColorMatrix type="matrix" values="0 0 0 0 0 0 0 0 0 0 0 0 0 0 0 0 0 0 1 0"/>
<feBlend mode="normal" in2="effect1_dropShadow_10559_24550" result="effect2_dropShadow_10559_24550"/>
<feBlend mode="normal" in="SourceGraphic" in2="effect2_dropShadow_10559_24550" result="shape"/>
</filter>
<filter id="filter1_dd_10559_24550" x="88.96" y="-0.171875" width="20.0049" height="21" filterUnits="userSpaceOnUse" color-interpolation-filters="sRGB">
<feFlood flood-opacity="0" result="BackgroundImageFix"/>
<feColorMatrix in="SourceAlpha" type="matrix" values="0 0 0 0 0 0 0 0 0 0 0 0 0 0 0 0 0 0 127 0" result="hardAlpha"/>
<feOffset dy="0.769231"/>
<feComposite in2="hardAlpha" operator="out"/>
<feColorMatrix type="matrix" values="0 0 0 0 0 0 0 0 0 0 0 0 0 0 0 0 0 0 0.5 0"/>
<feBlend mode="normal" in2="BackgroundImageFix" result="effect1_dropShadow_10559_24550"/>
<feColorMatrix in="SourceAlpha" type="matrix" values="0 0 0 0 0 0 0 0 0 0 0 0 0 0 0 0 0 0 127 0" result="hardAlpha"/>
<feOffset dy="1"/>
<feComposite in2="hardAlpha" operator="out"/>
<feColorMatrix type="matrix" values="0 0 0 0 0 0 0 0 0 0 0 0 0 0 0 0 0 0 1 0"/>
<feBlend mode="normal" in2="effect1_dropShadow_10559_24550" result="effect2_dropShadow_10559_24550"/>
<feBlend mode="normal" in="SourceGraphic" in2="effect2_dropShadow_10559_24550" result="shape"/>
</filter>
<filter id="filter2_dd_10559_24550" x="59.9834" y="7.59375" width="20.0049" height="21" filterUnits="userSpaceOnUse" color-interpolation-filters="sRGB">
<feFlood flood-opacity="0" result="BackgroundImageFix"/>
<feColorMatrix in="SourceAlpha" type="matrix" values="0 0 0 0 0 0 0 0 0 0 0 0 0 0 0 0 0 0 127 0" result="hardAlpha"/>
<feOffset dy="0.769231"/>
<feComposite in2="hardAlpha" operator="out"/>
<feColorMatrix type="matrix" values="0 0 0 0 0 0 0 0 0 0 0 0 0 0 0 0 0 0 0.5 0"/>
<feBlend mode="normal" in2="BackgroundImageFix" result="effect1_dropShadow_10559_24550"/>
<feColorMatrix in="SourceAlpha" type="matrix" values="0 0 0 0 0 0 0 0 0 0 0 0 0 0 0 0 0 0 127 0" result="hardAlpha"/>
<feOffset dy="1"/>
<feComposite in2="hardAlpha" operator="out"/>
<feColorMatrix type="matrix" values="0 0 0 0 0 0 0 0 0 0 0 0 0 0 0 0 0 0 1 0"/>
<feBlend mode="normal" in2="effect1_dropShadow_10559_24550" result="effect2_dropShadow_10559_24550"/>
<feBlend mode="normal" in="SourceGraphic" in2="effect2_dropShadow_10559_24550" result="shape"/>
</filter>
<filter id="filter3_dd_10559_24550" x="31.0068" y="15.3594" width="20.0049" height="21" filterUnits="userSpaceOnUse" color-interpolation-filters="sRGB">
<feFlood flood-opacity="0" result="BackgroundImageFix"/>
<feColorMatrix in="SourceAlpha" type="matrix" values="0 0 0 0 0 0 0 0 0 0 0 0 0 0 0 0 0 0 127 0" result="hardAlpha"/>
<feOffset dy="0.769231"/>
<feComposite in2="hardAlpha" operator="out"/>
<feColorMatrix type="matrix" values="0 0 0 0 0 0 0 0 0 0 0 0 0 0 0 0 0 0 0.5 0"/>
<feBlend mode="normal" in2="BackgroundImageFix" result="effect1_dropShadow_10559_24550"/>
<feColorMatrix in="SourceAlpha" type="matrix" values="0 0 0 0 0 0 0 0 0 0 0 0 0 0 0 0 0 0 127 0" result="hardAlpha"/>
<feOffset dy="1"/>
<feComposite in2="hardAlpha" operator="out"/>
<feColorMatrix type="matrix" values="0 0 0 0 0 0 0 0 0 0 0 0 0 0 0 0 0 0 1 0"/>
<feBlend mode="normal" in2="effect1_dropShadow_10559_24550" result="effect2_dropShadow_10559_24550"/>
<feBlend mode="normal" in="SourceGraphic" in2="effect2_dropShadow_10559_24550" result="shape"/>
</filter>
<filter id="filter4_dd_10559_24550" x="2.02637" y="23.125" width="20.0049" height="21" filterUnits="userSpaceOnUse" color-interpolation-filters="sRGB">
<feFlood flood-opacity="0" result="BackgroundImageFix"/>
<feColorMatrix in="SourceAlpha" type="matrix" values="0 0 0 0 0 0 0 0 0 0 0 0 0 0 0 0 0 0 127 0" result="hardAlpha"/>
<feOffset dy="0.769231"/>
<feComposite in2="hardAlpha" operator="out"/>
<feColorMatrix type="matrix" values="0 0 0 0 0 0 0 0 0 0 0 0 0 0 0 0 0 0 0.5 0"/>
<feBlend mode="normal" in2="BackgroundImageFix" result="effect1_dropShadow_10559_24550"/>
<feColorMatrix in="SourceAlpha" type="matrix" values="0 0 0 0 0 0 0 0 0 0 0 0 0 0 0 0 0 0 127 0" result="hardAlpha"/>
<feOffset dy="1"/>
<feComposite in2="hardAlpha" operator="out"/>
<feColorMatrix type="matrix" values="0 0 0 0 0 0 0 0 0 0 0 0 0 0 0 0 0 0 1 0"/>
<feBlend mode="normal" in2="effect1_dropShadow_10559_24550" result="effect2_dropShadow_10559_24550"/>
<feBlend mode="normal" in="SourceGraphic" in2="effect2_dropShadow_10559_24550" result="shape"/>
</filter>
<filter id="filter5_dd_10559_24550" x="146.917" y="-15.7031" width="20.0049" height="21" filterUnits="userSpaceOnUse" color-interpolation-filters="sRGB">
<feFlood flood-opacity="0" result="BackgroundImageFix"/>
<feColorMatrix in="SourceAlpha" type="matrix" values="0 0 0 0 0 0 0 0 0 0 0 0 0 0 0 0 0 0 127 0" result="hardAlpha"/>
<feOffset dy="0.769231"/>
<feComposite in2="hardAlpha" operator="out"/>
<feColorMatrix type="matrix" values="0 0 0 0 0 0 0 0 0 0 0 0 0 0 0 0 0 0 0.5 0"/>
<feBlend mode="normal" in2="BackgroundImageFix" result="effect1_dropShadow_10559_24550"/>
<feColorMatrix in="SourceAlpha" type="matrix" values="0 0 0 0 0 0 0 0 0 0 0 0 0 0 0 0 0 0 127 0" result="hardAlpha"/>
<feOffset dy="1"/>
<feComposite in2="hardAlpha" operator="out"/>
<feColorMatrix type="matrix" values="0 0 0 0 0 0 0 0 0 0 0 0 0 0 0 0 0 0 1 0"/>
<feBlend mode="normal" in2="effect1_dropShadow_10559_24550" result="effect2_dropShadow_10559_24550"/>
<feBlend mode="normal" in="SourceGraphic" in2="effect2_dropShadow_10559_24550" result="shape"/>
</filter>
<filter id="filter6_dd_10559_24550" x="278.358" y="11.1953" width="20.0049" height="21" filterUnits="userSpaceOnUse" color-interpolation-filters="sRGB">
<feFlood flood-opacity="0" result="BackgroundImageFix"/>
<feColorMatrix in="SourceAlpha" type="matrix" values="0 0 0 0 0 0 0 0 0 0 0 0 0 0 0 0 0 0 127 0" result="hardAlpha"/>
<feOffset dy="0.769231"/>
<feComposite in2="hardAlpha" operator="out"/>
<feColorMatrix type="matrix" values="0 0 0 0 0 0 0 0 0 0 0 0 0 0 0 0 0 0 0.5 0"/>
<feBlend mode="normal" in2="BackgroundImageFix" result="effect1_dropShadow_10559_24550"/>
<feColorMatrix in="SourceAlpha" type="matrix" values="0 0 0 0 0 0 0 0 0 0 0 0 0 0 0 0 0 0 127 0" result="hardAlpha"/>
<feOffset dy="1"/>
<feComposite in2="hardAlpha" operator="out"/>
<feColorMatrix type="matrix" values="0 0 0 0 0 0 0 0 0 0 0 0 0 0 0 0 0 0 1 0"/>
<feBlend mode="normal" in2="effect1_dropShadow_10559_24550" result="effect2_dropShadow_10559_24550"/>
<feBlend mode="normal" in="SourceGraphic" in2="effect2_dropShadow_10559_24550" result="shape"/>
</filter>
<filter id="filter7_dd_10559_24550" x="307.335" y="3.42969" width="20.0049" height="21" filterUnits="userSpaceOnUse" color-interpolation-filters="sRGB">
<feFlood flood-opacity="0" result="BackgroundImageFix"/>
<feColorMatrix in="SourceAlpha" type="matrix" values="0 0 0 0 0 0 0 0 0 0 0 0 0 0 0 0 0 0 127 0" result="hardAlpha"/>
<feOffset dy="0.769231"/>
<feComposite in2="hardAlpha" operator="out"/>
<feColorMatrix type="matrix" values="0 0 0 0 0 0 0 0 0 0 0 0 0 0 0 0 0 0 0.5 0"/>
<feBlend mode="normal" in2="BackgroundImageFix" result="effect1_dropShadow_10559_24550"/>
<feColorMatrix in="SourceAlpha" type="matrix" values="0 0 0 0 0 0 0 0 0 0 0 0 0 0 0 0 0 0 127 0" result="hardAlpha"/>
<feOffset dy="1"/>
<feComposite in2="hardAlpha" operator="out"/>
<feColorMatrix type="matrix" values="0 0 0 0 0 0 0 0 0 0 0 0 0 0 0 0 0 0 1 0"/>
<feBlend mode="normal" in2="effect1_dropShadow_10559_24550" result="effect2_dropShadow_10559_24550"/>
<feBlend mode="normal" in="SourceGraphic" in2="effect2_dropShadow_10559_24550" result="shape"/>
</filter>
<filter id="filter8_dd_10559_24550" x="249.378" y="18.9609" width="20.0049" height="21" filterUnits="userSpaceOnUse" color-interpolation-filters="sRGB">
<feFlood flood-opacity="0" result="BackgroundImageFix"/>
<feColorMatrix in="SourceAlpha" type="matrix" values="0 0 0 0 0 0 0 0 0 0 0 0 0 0 0 0 0 0 127 0" result="hardAlpha"/>
<feOffset dy="0.769231"/>
<feComposite in2="hardAlpha" operator="out"/>
<feColorMatrix type="matrix" values="0 0 0 0 0 0 0 0 0 0 0 0 0 0 0 0 0 0 0.5 0"/>
<feBlend mode="normal" in2="BackgroundImageFix" result="effect1_dropShadow_10559_24550"/>
<feColorMatrix in="SourceAlpha" type="matrix" values="0 0 0 0 0 0 0 0 0 0 0 0 0 0 0 0 0 0 127 0" result="hardAlpha"/>
<feOffset dy="1"/>
<feComposite in2="hardAlpha" operator="out"/>
<feColorMatrix type="matrix" values="0 0 0 0 0 0 0 0 0 0 0 0 0 0 0 0 0 0 1 0"/>
<feBlend mode="normal" in2="effect1_dropShadow_10559_24550" result="effect2_dropShadow_10559_24550"/>
<feBlend mode="normal" in="SourceGraphic" in2="effect2_dropShadow_10559_24550" result="shape"/>
</filter>
<filter id="filter9_dd_10559_24550" x="220.401" y="26.7266" width="20.0049" height="21" filterUnits="userSpaceOnUse" color-interpolation-filters="sRGB">
<feFlood flood-opacity="0" result="BackgroundImageFix"/>
<feColorMatrix in="SourceAlpha" type="matrix" values="0 0 0 0 0 0 0 0 0 0 0 0 0 0 0 0 0 0 127 0" result="hardAlpha"/>
<feOffset dy="0.769231"/>
<feComposite in2="hardAlpha" operator="out"/>
<feColorMatrix type="matrix" values="0 0 0 0 0 0 0 0 0 0 0 0 0 0 0 0 0 0 0.5 0"/>
<feBlend mode="normal" in2="BackgroundImageFix" result="effect1_dropShadow_10559_24550"/>
<feColorMatrix in="SourceAlpha" type="matrix" values="0 0 0 0 0 0 0 0 0 0 0 0 0 0 0 0 0 0 127 0" result="hardAlpha"/>
<feOffset dy="1"/>
<feComposite in2="hardAlpha" operator="out"/>
<feColorMatrix type="matrix" values="0 0 0 0 0 0 0 0 0 0 0 0 0 0 0 0 0 0 1 0"/>
<feBlend mode="normal" in2="effect1_dropShadow_10559_24550" result="effect2_dropShadow_10559_24550"/>
<feBlend mode="normal" in="SourceGraphic" in2="effect2_dropShadow_10559_24550" result="shape"/>
</filter>
<filter id="filter10_dd_10559_24550" x="191.425" y="34.4922" width="20.0049" height="21" filterUnits="userSpaceOnUse" color-interpolation-filters="sRGB">
<feFlood flood-opacity="0" result="BackgroundImageFix"/>
<feColorMatrix in="SourceAlpha" type="matrix" values="0 0 0 0 0 0 0 0 0 0 0 0 0 0 0 0 0 0 127 0" result="hardAlpha"/>
<feOffset dy="0.769231"/>
<feComposite in2="hardAlpha" operator="out"/>
<feColorMatrix type="matrix" values="0 0 0 0 0 0 0 0 0 0 0 0 0 0 0 0 0 0 0.5 0"/>
<feBlend mode="normal" in2="BackgroundImageFix" result="effect1_dropShadow_10559_24550"/>
<feColorMatrix in="SourceAlpha" type="matrix" values="0 0 0 0 0 0 0 0 0 0 0 0 0 0 0 0 0 0 127 0" result="hardAlpha"/>
<feOffset dy="1"/>
<feComposite in2="hardAlpha" operator="out"/>
<feColorMatrix type="matrix" values="0 0 0 0 0 0 0 0 0 0 0 0 0 0 0 0 0 0 1 0"/>
<feBlend mode="normal" in2="effect1_dropShadow_10559_24550" result="effect2_dropShadow_10559_24550"/>
<feBlend mode="normal" in="SourceGraphic" in2="effect2_dropShadow_10559_24550" result="shape"/>
</filter>
<filter id="filter11_dd_10559_24550" x="140.19" y="17.1562" width="20.0049" height="21" filterUnits="userSpaceOnUse" color-interpolation-filters="sRGB">
<feFlood flood-opacity="0" result="BackgroundImageFix"/>
<feColorMatrix in="SourceAlpha" type="matrix" values="0 0 0 0 0 0 0 0 0 0 0 0 0 0 0 0 0 0 127 0" result="hardAlpha"/>
<feOffset dy="0.769231"/>
<feComposite in2="hardAlpha" operator="out"/>
<feColorMatrix type="matrix" values="0 0 0 0 0 0 0 0 0 0 0 0 0 0 0 0 0 0 0.5 0"/>
<feBlend mode="normal" in2="BackgroundImageFix" result="effect1_dropShadow_10559_24550"/>
<feColorMatrix in="SourceAlpha" type="matrix" values="0 0 0 0 0 0 0 0 0 0 0 0 0 0 0 0 0 0 127 0" result="hardAlpha"/>
<feOffset dy="1"/>
<feComposite in2="hardAlpha" operator="out"/>
<feColorMatrix type="matrix" values="0 0 0 0 0 0 0 0 0 0 0 0 0 0 0 0 0 0 1 0"/>
<feBlend mode="normal" in2="effect1_dropShadow_10559_24550" result="effect2_dropShadow_10559_24550"/>
<feBlend mode="normal" in="SourceGraphic" in2="effect2_dropShadow_10559_24550" result="shape"/>
</filter>
<filter id="filter12_dd_10559_24550" x="336.312" y="-4.33594" width="20.0049" height="21" filterUnits="userSpaceOnUse" color-interpolation-filters="sRGB">
<feFlood flood-opacity="0" result="BackgroundImageFix"/>
<feColorMatrix in="SourceAlpha" type="matrix" values="0 0 0 0 0 0 0 0 0 0 0 0 0 0 0 0 0 0 127 0" result="hardAlpha"/>
<feOffset dy="0.769231"/>
<feComposite in2="hardAlpha" operator="out"/>
<feColorMatrix type="matrix" values="0 0 0 0 0 0 0 0 0 0 0 0 0 0 0 0 0 0 0.5 0"/>
<feBlend mode="normal" in2="BackgroundImageFix" result="effect1_dropShadow_10559_24550"/>
<feColorMatrix in="SourceAlpha" type="matrix" values="0 0 0 0 0 0 0 0 0 0 0 0 0 0 0 0 0 0 127 0" result="hardAlpha"/>
<feOffset dy="1"/>
<feComposite in2="hardAlpha" operator="out"/>
<feColorMatrix type="matrix" values="0 0 0 0 0 0 0 0 0 0 0 0 0 0 0 0 0 0 1 0"/>
<feBlend mode="normal" in2="effect1_dropShadow_10559_24550" result="effect2_dropShadow_10559_24550"/>
<feBlend mode="normal" in="SourceGraphic" in2="effect2_dropShadow_10559_24550" result="shape"/>
</filter>
<filter id="filter13_dd_10559_24550" x="329.589" y="28.5234" width="20.0049" height="21" filterUnits="userSpaceOnUse" color-interpolation-filters="sRGB">
<feFlood flood-opacity="0" result="BackgroundImageFix"/>
<feColorMatrix in="SourceAlpha" type="matrix" values="0 0 0 0 0 0 0 0 0 0 0 0 0 0 0 0 0 0 127 0" result="hardAlpha"/>
<feOffset dy="0.769231"/>
<feComposite in2="hardAlpha" operator="out"/>
<feColorMatrix type="matrix" values="0 0 0 0 0 0 0 0 0 0 0 0 0 0 0 0 0 0 0.5 0"/>
<feBlend mode="normal" in2="BackgroundImageFix" result="effect1_dropShadow_10559_24550"/>
<feColorMatrix in="SourceAlpha" type="matrix" values="0 0 0 0 0 0 0 0 0 0 0 0 0 0 0 0 0 0 127 0" result="hardAlpha"/>
<feOffset dy="1"/>
<feComposite in2="hardAlpha" operator="out"/>
<feColorMatrix type="matrix" values="0 0 0 0 0 0 0 0 0 0 0 0 0 0 0 0 0 0 1 0"/>
<feBlend mode="normal" in2="effect1_dropShadow_10559_24550" result="effect2_dropShadow_10559_24550"/>
<feBlend mode="normal" in="SourceGraphic" in2="effect2_dropShadow_10559_24550" result="shape"/>
</filter>
<filter id="filter15_dd_10559_24550" x="111.214" y="24.9219" width="20.0049" height="21" filterUnits="userSpaceOnUse" color-interpolation-filters="sRGB">
<feFlood flood-opacity="0" result="BackgroundImageFix"/>
<feColorMatrix in="SourceAlpha" type="matrix" values="0 0 0 0 0 0 0 0 0 0 0 0 0 0 0 0 0 0 127 0" result="hardAlpha"/>
<feOffset dy="0.769231"/>
<feComposite in2="hardAlpha" operator="out"/>
<feColorMatrix type="matrix" values="0 0 0 0 0 0 0 0 0 0 0 0 0 0 0 0 0 0 0.5 0"/>
<feBlend mode="normal" in2="BackgroundImageFix" result="effect1_dropShadow_10559_24550"/>
<feColorMatrix in="SourceAlpha" type="matrix" values="0 0 0 0 0 0 0 0 0 0 0 0 0 0 0 0 0 0 127 0" result="hardAlpha"/>
<feOffset dy="1"/>
<feComposite in2="hardAlpha" operator="out"/>
<feColorMatrix type="matrix" values="0 0 0 0 0 0 0 0 0 0 0 0 0 0 0 0 0 0 1 0"/>
<feBlend mode="normal" in2="effect1_dropShadow_10559_24550" result="effect2_dropShadow_10559_24550"/>
<feBlend mode="normal" in="SourceGraphic" in2="effect2_dropShadow_10559_24550" result="shape"/>
</filter>
<filter id="filter16_dd_10559_24550" x="256.104" y="-13.8984" width="20.0049" height="21" filterUnits="userSpaceOnUse" color-interpolation-filters="sRGB">
<feFlood flood-opacity="0" result="BackgroundImageFix"/>
<feColorMatrix in="SourceAlpha" type="matrix" values="0 0 0 0 0 0 0 0 0 0 0 0 0 0 0 0 0 0 127 0" result="hardAlpha"/>
<feOffset dy="0.769231"/>
<feComposite in2="hardAlpha" operator="out"/>
<feColorMatrix type="matrix" values="0 0 0 0 0 0 0 0 0 0 0 0 0 0 0 0 0 0 0.5 0"/>
<feBlend mode="normal" in2="BackgroundImageFix" result="effect1_dropShadow_10559_24550"/>
<feColorMatrix in="SourceAlpha" type="matrix" values="0 0 0 0 0 0 0 0 0 0 0 0 0 0 0 0 0 0 127 0" result="hardAlpha"/>
<feOffset dy="1"/>
<feComposite in2="hardAlpha" operator="out"/>
<feColorMatrix type="matrix" values="0 0 0 0 0 0 0 0 0 0 0 0 0 0 0 0 0 0 1 0"/>
<feBlend mode="normal" in2="effect1_dropShadow_10559_24550" result="effect2_dropShadow_10559_24550"/>
<feBlend mode="normal" in="SourceGraphic" in2="effect2_dropShadow_10559_24550" result="shape"/>
</filter>
<filter id="filter17_dd_10559_24550" x="82.2373" y="32.6875" width="20.0049" height="21" filterUnits="userSpaceOnUse" color-interpolation-filters="sRGB">
<feFlood flood-opacity="0" result="BackgroundImageFix"/>
<feColorMatrix in="SourceAlpha" type="matrix" values="0 0 0 0 0 0 0 0 0 0 0 0 0 0 0 0 0 0 127 0" result="hardAlpha"/>
<feOffset dy="0.769231"/>
<feComposite in2="hardAlpha" operator="out"/>
<feColorMatrix type="matrix" values="0 0 0 0 0 0 0 0 0 0 0 0 0 0 0 0 0 0 0.5 0"/>
<feBlend mode="normal" in2="BackgroundImageFix" result="effect1_dropShadow_10559_24550"/>
<feColorMatrix in="SourceAlpha" type="matrix" values="0 0 0 0 0 0 0 0 0 0 0 0 0 0 0 0 0 0 127 0" result="hardAlpha"/>
<feOffset dy="1"/>
<feComposite in2="hardAlpha" operator="out"/>
<feColorMatrix type="matrix" values="0 0 0 0 0 0 0 0 0 0 0 0 0 0 0 0 0 0 1 0"/>
<feBlend mode="normal" in2="effect1_dropShadow_10559_24550" result="effect2_dropShadow_10559_24550"/>
<feBlend mode="normal" in="SourceGraphic" in2="effect2_dropShadow_10559_24550" result="shape"/>
</filter>
<filter id="filter18_dd_10559_24550" x="227.124" y="-6.13281" width="20.0049" height="21" filterUnits="userSpaceOnUse" color-interpolation-filters="sRGB">
<feFlood flood-opacity="0" result="BackgroundImageFix"/>
<feColorMatrix in="SourceAlpha" type="matrix" values="0 0 0 0 0 0 0 0 0 0 0 0 0 0 0 0 0 0 127 0" result="hardAlpha"/>
<feOffset dy="0.769231"/>
<feComposite in2="hardAlpha" operator="out"/>
<feColorMatrix type="matrix" values="0 0 0 0 0 0 0 0 0 0 0 0 0 0 0 0 0 0 0.5 0"/>
<feBlend mode="normal" in2="BackgroundImageFix" result="effect1_dropShadow_10559_24550"/>
<feColorMatrix in="SourceAlpha" type="matrix" values="0 0 0 0 0 0 0 0 0 0 0 0 0 0 0 0 0 0 127 0" result="hardAlpha"/>
<feOffset dy="1"/>
<feComposite in2="hardAlpha" operator="out"/>
<feColorMatrix type="matrix" values="0 0 0 0 0 0 0 0 0 0 0 0 0 0 0 0 0 0 1 0"/>
<feBlend mode="normal" in2="effect1_dropShadow_10559_24550" result="effect2_dropShadow_10559_24550"/>
<feBlend mode="normal" in="SourceGraphic" in2="effect2_dropShadow_10559_24550" result="shape"/>
</filter>
<filter id="filter21_dd_10559_24550" x="300.608" y="36.2891" width="20.0049" height="21" filterUnits="userSpaceOnUse" color-interpolation-filters="sRGB">
<feFlood flood-opacity="0" result="BackgroundImageFix"/>
<feColorMatrix in="SourceAlpha" type="matrix" values="0 0 0 0 0 0 0 0 0 0 0 0 0 0 0 0 0 0 127 0" result="hardAlpha"/>
<feOffset dy="0.769231"/>
<feComposite in2="hardAlpha" operator="out"/>
<feColorMatrix type="matrix" values="0 0 0 0 0 0 0 0 0 0 0 0 0 0 0 0 0 0 0.5 0"/>
<feBlend mode="normal" in2="BackgroundImageFix" result="effect1_dropShadow_10559_24550"/>
<feColorMatrix in="SourceAlpha" type="matrix" values="0 0 0 0 0 0 0 0 0 0 0 0 0 0 0 0 0 0 127 0" result="hardAlpha"/>
<feOffset dy="1"/>
<feComposite in2="hardAlpha" operator="out"/>
<feColorMatrix type="matrix" values="0 0 0 0 0 0 0 0 0 0 0 0 0 0 0 0 0 0 1 0"/>
<feBlend mode="normal" in2="effect1_dropShadow_10559_24550" result="effect2_dropShadow_10559_24550"/>
<feBlend mode="normal" in="SourceGraphic" in2="effect2_dropShadow_10559_24550" result="shape"/>
</filter>
<filter id="filter22_dd_10559_24550" x="198.147" y="1.63281" width="20.0049" height="21" filterUnits="userSpaceOnUse" color-interpolation-filters="sRGB">
<feFlood flood-opacity="0" result="BackgroundImageFix"/>
<feColorMatrix in="SourceAlpha" type="matrix" values="0 0 0 0 0 0 0 0 0 0 0 0 0 0 0 0 0 0 127 0" result="hardAlpha"/>
<feOffset dy="0.769231"/>
<feComposite in2="hardAlpha" operator="out"/>
<feColorMatrix type="matrix" values="0 0 0 0 0 0 0 0 0 0 0 0 0 0 0 0 0 0 0.5 0"/>
<feBlend mode="normal" in2="BackgroundImageFix" result="effect1_dropShadow_10559_24550"/>
<feColorMatrix in="SourceAlpha" type="matrix" values="0 0 0 0 0 0 0 0 0 0 0 0 0 0 0 0 0 0 127 0" result="hardAlpha"/>
<feOffset dy="1"/>
<feComposite in2="hardAlpha" operator="out"/>
<feColorMatrix type="matrix" values="0 0 0 0 0 0 0 0 0 0 0 0 0 0 0 0 0 0 1 0"/>
<feBlend mode="normal" in2="effect1_dropShadow_10559_24550" result="effect2_dropShadow_10559_24550"/>
<feBlend mode="normal" in="SourceGraphic" in2="effect2_dropShadow_10559_24550" result="shape"/>
</filter>
<filter id="filter23_dd_10559_24550" x="169.171" y="9.39062" width="20.0049" height="21" filterUnits="userSpaceOnUse" color-interpolation-filters="sRGB">
<feFlood flood-opacity="0" result="BackgroundImageFix"/>
<feColorMatrix in="SourceAlpha" type="matrix" values="0 0 0 0 0 0 0 0 0 0 0 0 0 0 0 0 0 0 127 0" result="hardAlpha"/>
<feOffset dy="0.769231"/>
<feComposite in2="hardAlpha" operator="out"/>
<feColorMatrix type="matrix" values="0 0 0 0 0 0 0 0 0 0 0 0 0 0 0 0 0 0 0.5 0"/>
<feBlend mode="normal" in2="BackgroundImageFix" result="effect1_dropShadow_10559_24550"/>
<feColorMatrix in="SourceAlpha" type="matrix" values="0 0 0 0 0 0 0 0 0 0 0 0 0 0 0 0 0 0 127 0" result="hardAlpha"/>
<feOffset dy="1"/>
<feComposite in2="hardAlpha" operator="out"/>
<feColorMatrix type="matrix" values="0 0 0 0 0 0 0 0 0 0 0 0 0 0 0 0 0 0 1 0"/>
<feBlend mode="normal" in2="effect1_dropShadow_10559_24550" result="effect2_dropShadow_10559_24550"/>
<feBlend mode="normal" in="SourceGraphic" in2="effect2_dropShadow_10559_24550" result="shape"/>
</filter>
<filter id="filter24_dd_10559_24550" x="37.7295" y="-17.5" width="20.0049" height="21" filterUnits="userSpaceOnUse" color-interpolation-filters="sRGB">
<feFlood flood-opacity="0" result="BackgroundImageFix"/>
<feColorMatrix in="SourceAlpha" type="matrix" values="0 0 0 0 0 0 0 0 0 0 0 0 0 0 0 0 0 0 127 0" result="hardAlpha"/>
<feOffset dy="0.769231"/>
<feComposite in2="hardAlpha" operator="out"/>
<feColorMatrix type="matrix" values="0 0 0 0 0 0 0 0 0 0 0 0 0 0 0 0 0 0 0.5 0"/>
<feBlend mode="normal" in2="BackgroundImageFix" result="effect1_dropShadow_10559_24550"/>
<feColorMatrix in="SourceAlpha" type="matrix" values="0 0 0 0 0 0 0 0 0 0 0 0 0 0 0 0 0 0 127 0" result="hardAlpha"/>
<feOffset dy="1"/>
<feComposite in2="hardAlpha" operator="out"/>
<feColorMatrix type="matrix" values="0 0 0 0 0 0 0 0 0 0 0 0 0 0 0 0 0 0 1 0"/>
<feBlend mode="normal" in2="effect1_dropShadow_10559_24550" result="effect2_dropShadow_10559_24550"/>
<feBlend mode="normal" in="SourceGraphic" in2="effect2_dropShadow_10559_24550" result="shape"/>
</filter>
<filter id="filter25_dd_10559_24550" x="8.75293" y="-9.74219" width="20.0049" height="21" filterUnits="userSpaceOnUse" color-interpolation-filters="sRGB">
<feFlood flood-opacity="0" result="BackgroundImageFix"/>
<feColorMatrix in="SourceAlpha" type="matrix" values="0 0 0 0 0 0 0 0 0 0 0 0 0 0 0 0 0 0 127 0" result="hardAlpha"/>
<feOffset dy="0.769231"/>
<feComposite in2="hardAlpha" operator="out"/>
<feColorMatrix type="matrix" values="0 0 0 0 0 0 0 0 0 0 0 0 0 0 0 0 0 0 0.5 0"/>
<feBlend mode="normal" in2="BackgroundImageFix" result="effect1_dropShadow_10559_24550"/>
<feColorMatrix in="SourceAlpha" type="matrix" values="0 0 0 0 0 0 0 0 0 0 0 0 0 0 0 0 0 0 127 0" result="hardAlpha"/>
<feOffset dy="1"/>
<feComposite in2="hardAlpha" operator="out"/>
<feColorMatrix type="matrix" values="0 0 0 0 0 0 0 0 0 0 0 0 0 0 0 0 0 0 1 0"/>
<feBlend mode="normal" in2="effect1_dropShadow_10559_24550" result="effect2_dropShadow_10559_24550"/>
<feBlend mode="normal" in="SourceGraphic" in2="effect2_dropShadow_10559_24550" result="shape"/>
</filter>
<filter id="filter27_f_10559_24550" x="79" y="-40" width="200" height="120" filterUnits="userSpaceOnUse" color-interpolation-filters="sRGB">
<feFlood flood-opacity="0" result="BackgroundImageFix"/>
<feBlend mode="normal" in="SourceGraphic" in2="BackgroundImageFix" result="shape"/>
<feGaussianBlur stdDeviation="10" result="effect1_foregroundBlur_10559_24550"/>
</filter>
<linearGradient id="paint0_linear_10559_24550" x1="179" y1="0" x2="179" y2="40" gradientUnits="userSpaceOnUse">
<stop stop-color="#9099FD"/>
<stop offset="1" stop-color="#777AF0"/>
</linearGradient>
<linearGradient id="paint1_linear_10559_24550" x1="179" y1="0" x2="179" y2="40" gradientUnits="userSpaceOnUse">
<stop stop-color="#9099FD"/>
<stop offset="1" stop-color="#777AF0"/>
</linearGradient>
<linearGradient id="paint2_linear_10559_24550" x1="179" y1="0" x2="179" y2="40" gradientUnits="userSpaceOnUse">
<stop stop-color="#F7DF64"/>
<stop offset="1" stop-color="#FEA93E"/>
</linearGradient>
<clipPath id="clip0_10559_24550">
<rect width="358" height="40" fill="white"/>
</clipPath>
</defs>
</svg>
