<svg viewBox="0 0 28 28" fill="none" xmlns="http://www.w3.org/2000/svg">
<g>
<circle cx="14.0002" cy="14.0012" r="12.9231" fill="#DB8D22"/>
</g>
<circle cx="14.0005" cy="13.9985" r="11.8462" fill="#F5C941"/>
<circle cx="13.9999" cy="14.0009" r="9.69231" fill="#DB8D22"/>
<path d="M10.7794 11L6 15.77V16.8869H9.01113L11.8456 13.9682V11H10.7794Z" fill="#ECCA34"/>
<path d="M15.2227 11L11.8457 13.9682V16.8869H12.9796L16.3159 13.933V11H15.2227Z" fill="#ECCA34"/>
<path d="M19.6285 11L16.3164 13.933V16.8869H17.3876L22.5059 12.1235V11H19.6285Z" fill="#ECCA34"/>
<path opacity="0.8" d="M25.8454 14.1491C25.8436 14.462 25.8294 14.7723 25.8038 15.0793C25.3716 8.9292 20.2979 3.44754 14.0667 3.40781C7.8352 3.36781 2.69341 8.78428 2.18352 14.9284C2.16188 14.6209 2.15166 14.3105 2.15354 13.9975C2.19511 7.4163 7.53231 2.1149 14.0746 2.15649C20.6167 2.19831 25.887 7.56762 25.8454 14.1491Z" fill="white"/>
<circle cx="14.0002" cy="14.0012" r="13.1923" stroke="black" stroke-width="0.538462"/>
</svg>
