<svg viewBox="0 0 32 32" fill="none" xmlns="http://www.w3.org/2000/svg">
<g clip-path="url(#clip0_9882_14927)">
<g filter="url(#filter0_d_9882_14927)">
<circle cx="16.0031" cy="16.0036" r="14.7692" fill="#35AFF1"/>
</g>
<circle cx="16.014" cy="15.9955" r="13.5385" fill="url(#paint0_linear_9882_14927)"/>
<circle cx="15.9881" cy="15.9988" r="11.0769" fill="url(#paint1_linear_9882_14927)"/>
<path opacity="0.2" d="M29.5473 16.1593C29.5453 16.5169 29.5291 16.8714 29.4998 17.2224C29.0059 10.1936 23.2073 3.92889 16.086 3.88348C8.96427 3.83777 3.08794 10.028 2.50521 17.0499C2.48049 16.6984 2.46881 16.3437 2.47095 15.986C2.51847 8.46461 8.61812 2.40587 16.095 2.4534C23.5717 2.50119 29.5949 8.63754 29.5473 16.1593Z" fill="white"/>
<path fill-rule="evenodd" clip-rule="evenodd" d="M16.0104 7.38672C11.2523 7.38672 7.39502 11.244 7.39502 16.0021C7.39502 20.7603 11.2523 24.6175 16.0104 24.6175C20.7686 24.6175 24.6258 20.7603 24.6258 16.0021C24.6258 11.244 20.7686 7.38672 16.0104 7.38672ZM14.7573 20.8348C14.3813 21.1069 13.8804 20.7272 14.0409 20.2917L15.0286 17.6112C15.1123 17.3841 15.0098 17.1307 14.7919 17.0255L12.1309 15.7417C11.8105 15.5871 11.7715 15.1464 12.0596 14.9378L17.2636 11.1718C17.6396 10.8997 18.1405 11.2795 17.98 11.7149L16.9923 14.3954C16.9086 14.6225 17.0111 14.876 17.229 14.9811L19.89 16.2649C20.2104 16.4195 20.2495 16.8602 19.9613 17.0688L14.7573 20.8348Z" fill="#166495"/>
<circle cx="16.0031" cy="16.0036" r="15.0769" stroke="black" stroke-width="0.615385"/>
</g>
<defs>
<filter id="filter0_d_9882_14927" x="1.23389" y="1.23438" width="29.5386" height="30.7698" filterUnits="userSpaceOnUse" color-interpolation-filters="sRGB">
<feFlood flood-opacity="0" result="BackgroundImageFix"/>
<feColorMatrix in="SourceAlpha" type="matrix" values="0 0 0 0 0 0 0 0 0 0 0 0 0 0 0 0 0 0 127 0" result="hardAlpha"/>
<feOffset dy="1.23077"/>
<feComposite in2="hardAlpha" operator="out"/>
<feColorMatrix type="matrix" values="0 0 0 0 0 0 0 0 0 0 0 0 0 0 0 0 0 0 0.5 0"/>
<feBlend mode="normal" in2="BackgroundImageFix" result="effect1_dropShadow_9882_14927"/>
<feBlend mode="normal" in="SourceGraphic" in2="effect1_dropShadow_9882_14927" result="shape"/>
</filter>
<linearGradient id="paint0_linear_9882_14927" x1="8.76075" y1="4.56616" x2="23.2673" y2="27.4248" gradientUnits="userSpaceOnUse">
<stop stop-color="#84D4FF"/>
<stop offset="0.5" stop-color="#61C7FF"/>
<stop offset="1" stop-color="#42BDFF"/>
</linearGradient>
<linearGradient id="paint1_linear_9882_14927" x1="10.0536" y1="6.64744" x2="21.9227" y2="25.3501" gradientUnits="userSpaceOnUse">
<stop stop-color="#35AFF1"/>
<stop offset="0.5" stop-color="#4DC0FF"/>
<stop offset="1" stop-color="#9EDDFF"/>
</linearGradient>
<clipPath id="clip0_9882_14927">
<rect width="32" height="32" fill="white"/>
</clipPath>
</defs>
</svg>
