<svg width="16" height="16" viewBox="0 0 16 16" fill="none" xmlns="http://www.w3.org/2000/svg">
<path fill-rule="evenodd" clip-rule="evenodd" d="M8 0C3.58172 0 0 3.58172 0 8C0 12.4183 3.58172 16 8 16C12.4183 16 16 12.4183 16 8C16 3.58172 12.4183 0 8 0ZM6.8364 12.4875C6.48727 12.7402 6.02217 12.3876 6.17118 11.9832L7.08835 9.49415C7.16604 9.28331 7.07091 9.04794 6.86853 8.9503L4.39764 7.75821C4.10013 7.61467 4.06383 7.20541 4.33143 7.01175L9.16369 3.51472C9.51282 3.26206 9.97792 3.61468 9.82891 4.01906L8.91175 6.50809C8.83405 6.71893 8.92919 6.9543 9.13157 7.05193L11.6025 8.24403C11.9 8.38757 11.9363 8.79682 11.6687 8.99049L6.8364 12.4875Z" fill="white"/>
</svg>
