<svg  viewBox="0 0 21 20" fill="none" xmlns="http://www.w3.org/2000/svg">
<path d="M12.166 0.854989L13.4973 2.17741C13.6261 2.30073 13.7408 2.34289 13.9133 2.34289H15.7822C17.3975 2.34289 18.1509 3.10749 18.1509 4.71153V6.58742C18.1509 6.75293 18.1986 6.87307 18.3236 6.99638L19.646 8.32597C20.7811 9.46264 20.7882 10.5316 19.646 11.6666L18.3236 12.9963C18.2002 13.1268 18.1509 13.2414 18.1509 13.4125V15.2811C18.1509 16.898 17.3934 17.6513 15.7822 17.6513H13.9133C13.7408 17.6513 13.6277 17.6991 13.4973 17.8225L12.166 19.1449C11.0309 20.2814 9.96192 20.2887 8.82686 19.1449L7.4956 17.8225C7.37228 17.6991 7.25214 17.6513 7.08662 17.6513H5.21069C3.60099 17.6513 2.84197 16.8924 2.84197 15.2811V13.4125C2.84197 13.2414 2.79982 13.1268 2.67649 12.9963L1.35403 11.6666C0.218914 10.5316 0.211739 9.46264 1.35403 8.32597L2.67649 6.99638C2.79982 6.87461 2.84197 6.75293 2.84197 6.58742V4.71153C2.84197 3.09156 3.59941 2.34289 5.21069 2.34289H7.08662C7.25214 2.34289 7.37382 2.30073 7.4956 2.17741L8.82686 0.856561C9.96192 -0.281666 11.0293 -0.288842 12.166 0.854989ZM13.1115 6.5521L9.49648 12.3426L7.81064 10.2022C7.58566 9.91362 7.37597 9.81351 7.10587 9.81351C6.6547 9.81351 6.30132 10.175 6.30132 10.6277C6.30132 10.8421 6.38168 11.0511 6.53808 11.2512L8.68145 13.8585C8.9262 14.1757 9.19467 14.3114 9.5251 14.3114C9.85243 14.3114 10.1359 14.151 10.3354 13.8521L14.429 7.4704C14.5512 7.27662 14.657 7.0629 14.657 6.85382C14.657 6.40266 14.2543 6.09621 13.8264 6.09621C13.5508 6.09621 13.3028 6.24634 13.1115 6.5521Z" fill="#FFCC00"/>
</svg>
