<svg width="91" height="60" viewBox="0 0 91 60" fill="none" xmlns="http://www.w3.org/2000/svg">
<path d="M42.0898 48.8933L81.8605 18.0016L90.1 31.717L44.1497 52.3221L42.0898 48.8933Z" fill="url(#paint0_linear_10382_12244)"/>
<path d="M49.0098 44.8933L9.23913 14.0016L0.999645 27.717L46.9499 48.3221L49.0098 44.8933Z" fill="url(#paint1_linear_10382_12244)"/>
<path d="M45.0202 50.2515L41.7259 0.000634909L25.9986 2.94209L41.0884 50.9868L45.0202 50.2515Z" fill="url(#paint2_linear_10382_12244)"/>
<path d="M48.5334 50.6861L69.3374 4.82547L54.0828 -0.00124717L44.7198 49.4794L48.5334 50.6861Z" fill="url(#paint3_linear_10382_12244)"/>
<path d="M50.1733 39.8738L0.000862241 44.2009L3.26515 59.8644L50.9894 43.7897L50.1733 39.8738Z" fill="url(#paint4_linear_10382_12244)"/>
<defs>
<linearGradient id="paint0_linear_10382_12244" x1="43.1197" y1="50.6077" x2="85.9802" y2="24.8593" gradientUnits="userSpaceOnUse">
<stop stop-color="white"/>
<stop offset="1" stop-color="white" stop-opacity="0"/>
</linearGradient>
<linearGradient id="paint1_linear_10382_12244" x1="47.9799" y1="46.6077" x2="5.11939" y2="20.8593" gradientUnits="userSpaceOnUse">
<stop stop-color="white"/>
<stop offset="1" stop-color="white" stop-opacity="0"/>
</linearGradient>
<linearGradient id="paint2_linear_10382_12244" x1="43.0543" y1="50.6192" x2="33.8623" y2="1.47136" gradientUnits="userSpaceOnUse">
<stop stop-color="white"/>
<stop offset="1" stop-color="white" stop-opacity="0"/>
</linearGradient>
<linearGradient id="paint3_linear_10382_12244" x1="46.6266" y1="50.0827" x2="61.7101" y2="2.41211" gradientUnits="userSpaceOnUse">
<stop stop-color="white"/>
<stop offset="1" stop-color="white" stop-opacity="0"/>
</linearGradient>
<linearGradient id="paint4_linear_10382_12244" x1="50.5814" y1="41.8317" x2="1.63301" y2="52.0326" gradientUnits="userSpaceOnUse">
<stop stop-color="white"/>
<stop offset="1" stop-color="white" stop-opacity="0"/>
</linearGradient>
</defs>
</svg>
