<svg width="18" height="18" viewBox="0 0 18 18" fill="none" xmlns="http://www.w3.org/2000/svg">
<g clip-path="url(#clip0_9882_14797)">
<g filter="url(#filter0_d_9882_14797)">
<circle cx="9.00056" cy="8.9991" r="8.30769" fill="#EB8E07"/>
</g>
<circle cx="9.00161" cy="8.99038" r="7.61538" fill="url(#paint0_linear_9882_14797)"/>
<circle cx="8.99786" cy="8.99249" r="6.23077" fill="url(#paint1_linear_9882_14797)"/>
<path opacity="0.8" d="M16.6144 9.09643C16.6132 9.29758 16.6041 9.49702 16.5877 9.69441C16.3098 5.74076 13.0481 2.21684 9.0424 2.1913C5.03642 2.16558 1.73099 5.6476 1.4032 9.59739C1.38929 9.3997 1.38272 9.20016 1.38393 8.99896C1.41066 4.76818 4.84171 1.36014 9.04744 1.38687C13.2531 1.41376 16.6412 4.86545 16.6144 9.09643Z" fill="white"/>
<path fill-rule="evenodd" clip-rule="evenodd" d="M8.99873 13.7992C11.6497 13.7992 13.7987 11.6502 13.7987 8.99922C13.7987 6.34825 11.6497 4.19922 8.99873 4.19922C6.34776 4.19922 4.19873 6.34825 4.19873 8.99922C4.19873 11.6502 6.34776 13.7992 8.99873 13.7992ZM11.2183 9.62922C11.2183 9.05199 10.7315 8.70737 9.75797 8.59537L8.56258 8.45968C8.33859 8.43383 8.18566 8.40368 8.10381 8.36922C8.02627 8.33045 7.98751 8.27445 7.98751 8.20122V8.15599C7.98751 7.97076 8.29981 7.87814 8.92443 7.87814C9.29489 7.87814 9.56843 7.91475 9.74505 7.98799C9.92597 8.05691 10.0164 8.1646 10.0164 8.31107V8.3563H11.1214V8.31107C11.1214 7.95783 10.99 7.67352 10.7272 7.45814C10.4687 7.23845 10.0897 7.09845 9.58997 7.03814V6.48891H8.38166V7.03168C7.89058 7.08768 7.5115 7.21691 7.24443 7.41937C6.98166 7.62183 6.85027 7.8846 6.85027 8.20768V8.27229C6.85027 8.57815 6.96874 8.81938 7.20566 8.99599C7.44258 9.1726 7.80228 9.28676 8.28474 9.33845L9.51889 9.46768C9.72566 9.48922 9.86781 9.52153 9.94535 9.56461C10.0229 9.60768 10.0617 9.67229 10.0617 9.75845V9.80368C10.0617 9.91568 9.97981 9.99753 9.81612 10.0492C9.65674 10.1009 9.40258 10.1268 9.05366 10.1268C8.65735 10.1268 8.36443 10.0858 8.17489 10.004C7.98535 9.91784 7.89058 9.7886 7.89058 9.61629V9.57107H6.7792V9.61629C6.7792 10.0083 6.91274 10.3184 7.17981 10.5467C7.4512 10.7708 7.85181 10.9129 8.38166 10.9732V11.5095H9.58997V10.9732C10.1069 10.9129 10.5075 10.7729 10.7918 10.5532C11.0761 10.3292 11.2183 10.0428 11.2183 9.69383V9.62922Z" fill="url(#paint2_linear_9882_14797)"/>
<path fill-rule="evenodd" clip-rule="evenodd" d="M8.99873 13.7992C11.6497 13.7992 13.7987 11.6502 13.7987 8.99922C13.7987 6.34825 11.6497 4.19922 8.99873 4.19922C6.34776 4.19922 4.19873 6.34825 4.19873 8.99922C4.19873 11.6502 6.34776 13.7992 8.99873 13.7992ZM11.2183 9.62922C11.2183 9.05199 10.7315 8.70737 9.75797 8.59537L8.56258 8.45968C8.33859 8.43383 8.18566 8.40368 8.10381 8.36922C8.02627 8.33045 7.98751 8.27445 7.98751 8.20122V8.15599C7.98751 7.97076 8.29981 7.87814 8.92443 7.87814C9.29489 7.87814 9.56843 7.91475 9.74505 7.98799C9.92597 8.05691 10.0164 8.1646 10.0164 8.31107V8.3563H11.1214V8.31107C11.1214 7.95783 10.99 7.67352 10.7272 7.45814C10.4687 7.23845 10.0897 7.09845 9.58997 7.03814V6.48891H8.38166V7.03168C7.89058 7.08768 7.5115 7.21691 7.24443 7.41937C6.98166 7.62183 6.85027 7.8846 6.85027 8.20768V8.27229C6.85027 8.57815 6.96874 8.81938 7.20566 8.99599C7.44258 9.1726 7.80228 9.28676 8.28474 9.33845L9.51889 9.46768C9.72566 9.48922 9.86781 9.52153 9.94535 9.56461C10.0229 9.60768 10.0617 9.67229 10.0617 9.75845V9.80368C10.0617 9.91568 9.97981 9.99753 9.81612 10.0492C9.65674 10.1009 9.40258 10.1268 9.05366 10.1268C8.65735 10.1268 8.36443 10.0858 8.17489 10.004C7.98535 9.91784 7.89058 9.7886 7.89058 9.61629V9.57107H6.7792V9.61629C6.7792 10.0083 6.91274 10.3184 7.17981 10.5467C7.4512 10.7708 7.85181 10.9129 8.38166 10.9732V11.5095H9.58997V10.9732C10.1069 10.9129 10.5075 10.7729 10.7918 10.5532C11.0761 10.3292 11.2183 10.0428 11.2183 9.69383V9.62922Z" fill="#883308"/>
<circle cx="9.00056" cy="8.9991" r="8.48077" stroke="black" stroke-width="0.346154"/>
</g>
<defs>
<filter id="filter0_d_9882_14797" x="0.692871" y="0.691406" width="16.6152" height="17.3095" filterUnits="userSpaceOnUse" color-interpolation-filters="sRGB">
<feFlood flood-opacity="0" result="BackgroundImageFix"/>
<feColorMatrix in="SourceAlpha" type="matrix" values="0 0 0 0 0 0 0 0 0 0 0 0 0 0 0 0 0 0 127 0" result="hardAlpha"/>
<feOffset dy="0.692308"/>
<feComposite in2="hardAlpha" operator="out"/>
<feColorMatrix type="matrix" values="0 0 0 0 0 0 0 0 0 0 0 0 0 0 0 0 0 0 0.5 0"/>
<feBlend mode="normal" in2="BackgroundImageFix" result="effect1_dropShadow_9882_14797"/>
<feBlend mode="normal" in="SourceGraphic" in2="effect1_dropShadow_9882_14797" result="shape"/>
</filter>
<linearGradient id="paint0_linear_9882_14797" x1="4.92164" y1="2.56139" x2="13.0816" y2="15.4194" gradientUnits="userSpaceOnUse">
<stop stop-color="#FFFC00"/>
<stop offset="0.5" stop-color="#FFF000"/>
<stop offset="1" stop-color="#FFE400"/>
</linearGradient>
<linearGradient id="paint1_linear_9882_14797" x1="5.6597" y1="3.73235" x2="12.3361" y2="14.2526" gradientUnits="userSpaceOnUse">
<stop stop-color="#FFDE00"/>
<stop offset="0.5" stop-color="#FDEC50"/>
<stop offset="1" stop-color="#FBFA9F"/>
</linearGradient>
<linearGradient id="paint2_linear_9882_14797" x1="6.36499" y1="4.2847" x2="11.49" y2="12.2354" gradientUnits="userSpaceOnUse">
<stop stop-color="#E8991E"/>
<stop offset="0.5" stop-color="#E88908"/>
<stop offset="1" stop-color="#D97500"/>
</linearGradient>
<clipPath id="clip0_9882_14797">
<rect width="18" height="18" fill="white"/>
</clipPath>
</defs>
</svg>
