<svg width="70" height="62" viewBox="0 0 70 62" fill="none" xmlns="http://www.w3.org/2000/svg">
<g filter="url(#filter0_dd_9876_13068)">
<path d="M27.7348 52.7871C27.4385 50.8013 27.1442 48.8172 26.848 46.8314C26.2903 43.3835 25.8968 40.3913 25.6202 38.0033C25.6202 38.0033 24.7949 30.8901 24.485 23.7318C24.3701 21.1011 24.2961 17.6218 24.2911 16.6658C24.2923 16.5962 24.2916 16.3366 24.2845 15.9842C24.2711 15.2667 24.2438 14.8082 24.2034 13.9705C24.134 12.5501 24.151 12.6602 24.1207 12.2514C24.0114 10.7723 23.8874 10.5253 23.794 10.378C23.7305 10.2793 23.6289 10.1419 23.4663 9.997C23.04 9.61915 22.4676 9.45161 21.9008 9.4957C16.1354 9.94342 11.9232 10.3979 10.6957 10.5821C10.3779 10.6282 9.3662 10.7917 8.55865 11.4695C8.25363 11.7248 8.07762 11.9706 8.01446 12.0639C7.62675 12.6282 7.54237 13.1897 7.5099 13.4248C6.58996 20.0506 7.35988 29.3943 7.35988 29.3943C7.74992 34.1242 7.73844 34.4946 7.98191 36.6295C8.31686 39.5592 8.64531 41.5366 9.17507 44.7072C10.6433 53.4832 11.1786 54.188 11.9303 54.5849C13.3607 55.3412 15.9081 55.1513 19.3947 54.8901C19.4765 54.8848 19.5455 54.8788 19.8088 54.8576C22.3637 54.6487 24.5462 54.4486 26.316 54.2755C26.6914 54.239 27.0521 54.0977 27.3338 53.8481C27.5223 53.6816 27.6909 53.4566 27.7406 53.1669C27.7574 53.0667 27.7646 52.9399 27.7348 52.7871ZM26.9667 51.6582C26.9128 52.0872 26.6493 52.3572 26.6493 52.3572C26.4192 52.5913 26.1449 52.6537 26.0368 52.6723C23.5511 52.8989 21.4217 53.0797 19.6803 53.2211C19.3426 53.2488 19.5895 53.229 19.3026 53.2523C15.6725 53.5461 14.6236 53.7641 13.2056 53.2133C13.0883 53.1687 13.0295 53.1446 12.9571 53.1107C11.0744 52.2019 11.0779 49.42 9.90169 43.7731C9.89765 43.7478 9.76229 42.9532 9.5904 41.8874C9.41852 40.8216 9.20996 39.4829 9.05935 38.3677C8.97023 37.7043 8.88448 37.0169 8.7983 36.2618C8.57346 34.2771 8.58353 33.9324 8.22074 29.5348C8.22074 29.5348 7.50451 20.8466 8.34271 14.687C8.37116 14.4687 8.44798 13.9462 8.80439 13.4213C8.86274 13.3357 9.02384 13.1076 9.30291 12.8693C10.0435 12.2412 10.974 12.0903 11.2664 12.0464C12.3945 11.8764 16.2624 11.4575 21.5593 11.0472C22.0806 11.007 22.6064 11.164 22.9973 11.5139C23.1483 11.6506 23.2417 11.7778 23.2991 11.8697C23.3842 12.0067 23.4994 12.2362 23.6015 13.6117C23.6292 13.9915 23.6147 13.8885 23.6792 15.2106C23.7181 15.9899 23.7425 16.4157 23.7553 17.0839C23.7618 17.4089 23.7628 17.6502 23.763 17.716C23.7676 18.6044 23.8386 21.8407 23.9466 24.2873C24.2381 30.9425 25.0052 37.5578 25.0052 37.5578C25.2614 39.7757 25.6237 42.5585 26.1403 45.7668C26.4151 47.6118 26.6883 49.4587 26.9613 51.3039C26.9667 51.3455 26.9897 51.4825 26.9667 51.6582Z" fill="url(#paint0_linear_9876_13068)"/>
<path d="M26.9663 51.6584C26.9124 52.0874 26.6489 52.3574 26.6489 52.3574C26.4188 52.5915 26.1445 52.6539 26.0364 52.6725C23.5507 52.8991 21.4214 53.0799 19.6799 53.2213C19.3422 53.249 19.5892 53.2292 19.3022 53.2525C15.6722 53.5463 14.6232 53.7643 13.2052 53.2135C13.088 53.1689 13.0292 53.1448 12.9567 53.1109C11.074 52.2021 11.0775 49.4202 9.9013 43.7733C9.89726 43.7481 9.7619 42.9534 9.59002 41.8876C9.41814 40.8218 9.20957 39.4831 9.05897 38.3679C8.96984 37.7045 8.8841 37.0171 8.79792 36.262C8.57307 34.2773 8.58315 33.9326 8.22035 29.535C8.22035 29.535 7.50413 20.8468 8.34232 14.6872C8.37078 14.4689 8.4476 13.9465 8.80401 13.4215C8.86236 13.336 9.02346 13.1079 9.30252 12.8695C10.0431 12.2414 10.9736 12.0905 11.266 12.0467C12.3941 11.8766 16.262 11.4578 21.5589 11.0474C22.0802 11.0073 22.606 11.1643 22.9969 11.5141C23.1479 11.6509 23.2413 11.778 23.2987 11.8699C23.3839 12.007 23.499 12.2365 23.6011 13.6119C23.6288 13.9917 23.6143 13.8888 23.6788 15.2108C23.7177 15.9902 23.7422 16.416 23.7549 17.0842C23.7614 17.4091 23.7624 17.6505 23.7627 17.7163C23.7672 18.6047 23.8382 21.8409 23.9462 24.2876C24.2377 30.9427 25.0048 37.5581 25.0048 37.5581C25.261 39.7759 25.6234 42.5588 26.14 45.767C26.4148 47.612 26.6879 49.459 26.9609 51.3041C26.9664 51.3457 26.9893 51.4827 26.9663 51.6584Z" fill="#FEFEDF"/>
<path d="M26.9663 51.6584C26.9124 52.0874 26.6489 52.3574 26.6489 52.3574C26.4188 52.5915 26.1445 52.6539 26.0364 52.6725C23.5507 52.8991 21.4214 53.0799 19.6799 53.2213C19.3422 53.249 19.5892 53.2292 19.3022 53.2525C15.6722 53.5463 14.6232 53.7643 13.2052 53.2135C13.088 53.1689 13.0292 53.1448 12.9567 53.1109C11.074 52.2021 11.0775 49.4202 9.9013 43.7733C9.89726 43.7481 9.7619 42.9534 9.59002 41.8876C9.41814 40.8218 9.20957 39.4831 9.05897 38.3679C8.96984 37.7045 8.8841 37.0171 8.79792 36.262C8.57307 34.2773 8.58315 33.9326 8.22035 29.535C8.22035 29.535 7.50413 20.8468 8.34232 14.6872C8.37078 14.4689 8.4476 13.9465 8.80401 13.4215C8.86236 13.336 9.02346 13.1079 9.30252 12.8695C10.0431 12.2414 10.9736 12.0905 11.266 12.0467C12.3941 11.8766 16.262 11.4578 21.5589 11.0474C22.0802 11.0073 22.606 11.1643 22.9969 11.5141C23.1479 11.6509 23.2413 11.778 23.2987 11.8699C23.3839 12.007 23.499 12.2365 23.6011 13.6119C23.6288 13.9917 23.6143 13.8888 23.6788 15.2108C23.7177 15.9902 23.7422 16.416 23.7549 17.0842C23.7614 17.4091 23.7624 17.6505 23.7627 17.7163C23.7672 18.6047 23.8382 21.8409 23.9462 24.2876C24.2377 30.9427 25.0048 37.5581 25.0048 37.5581C25.261 39.7759 25.6234 42.5588 26.14 45.767C26.4148 47.612 26.6879 49.459 26.9609 51.3041C26.9664 51.3457 26.9893 51.4827 26.9663 51.6584Z" fill="url(#paint1_radial_9876_13068)"/>
<path d="M26.925 30.6951C27.0567 32.2837 27.3818 36.0208 27.9481 40.8414C28.2902 43.7485 28.7419 47.2185 29.3377 51.144C29.3916 51.4886 29.5731 51.7854 29.8302 51.9861C30.0856 52.1886 30.4168 52.295 30.7635 52.2647L36.789 51.7375L36.9317 53.3691L30.1403 53.9633C29.3581 54.0317 28.6628 53.4635 28.5743 52.6812C28.054 48.0724 27.6253 44.3224 27.3225 41.6971C26.7604 36.8195 26.4801 34.4519 26.1548 30.8374C26.0913 30.1115 25.7955 26.7943 25.514 22.3219C25.3187 19.2117 25.1218 15.414 24.9886 11.0493C24.9573 10.0225 25.7312 9.14825 26.7527 9.05523L26.7709 9.05364C28.8483 8.86457 30.9279 8.67898 33.0059 8.49717L33.1288 9.90191C31.1923 10.0713 29.258 10.2442 27.3221 10.4209L27.1424 10.4366C26.414 10.493 25.8593 11.114 25.8829 11.8434C26.018 16.1257 26.2009 19.8057 26.3733 22.7368C26.4909 24.7291 26.6414 27.2854 26.925 30.6951Z" fill="url(#paint2_linear_9876_13068)"/>
<path d="M64.9105 28.0411C64.6696 25.3501 64.3671 23.3978 63.9759 20.9119C63.4896 17.8199 62.9891 15.2137 62.3251 12.4737C61.1371 7.5704 60.4637 6.54118 59.5025 5.83889C58.0083 4.75162 56.1996 4.73064 55.0465 4.84433L10.6718 8.72661C9.5164 8.81489 7.73882 9.14963 6.45616 10.4798C5.6315 11.3384 5.14702 12.4689 4.82858 17.504C4.65046 20.3177 4.61012 22.9712 4.66812 26.1007C4.71451 28.6167 4.75564 30.5919 4.98567 33.2839C5.14289 35.1227 5.28664 36.1178 5.81018 39.907C5.81018 39.907 7.58429 52.7436 10.0838 55.3303C10.6992 55.9678 11.4377 56.2982 11.4377 56.2982C12.3343 56.7007 13.2009 56.6981 13.7662 56.6376L60.3187 52.5648C60.886 52.5262 61.7399 52.3783 62.5529 51.8262C62.5529 51.8262 63.2228 51.3726 63.7182 50.6379C65.7305 47.6565 65.2486 34.7068 65.2486 34.7068C65.1062 30.8843 65.075 29.8793 64.9105 28.0411ZM27.7402 53.1693C27.6906 53.4589 27.5219 53.684 27.3335 53.8504C27.0517 54.1 26.691 54.2413 26.3157 54.2778C24.5459 54.4509 22.3633 54.651 19.8085 54.8599C19.5452 54.8811 19.4762 54.8872 19.3944 54.8925C15.9077 55.1536 13.3604 55.3436 11.9299 54.5873C11.1783 54.1903 10.643 53.4855 9.17472 44.7095C8.64496 41.539 8.31651 39.5615 7.98155 36.6318C7.73808 34.497 7.74957 34.1265 7.35953 29.3966C7.35953 29.3966 6.58961 20.0529 7.50955 13.4272C7.54202 13.1921 7.6264 12.6305 8.01411 12.0663C8.07727 11.973 8.25328 11.7271 8.5583 11.4718C9.36585 10.794 10.3775 10.6305 10.6953 10.5844C11.9228 10.4002 16.135 9.94578 21.9005 9.49806C22.4672 9.45396 23.0397 9.6215 23.4659 9.99935C23.6286 10.1442 23.7302 10.2816 23.7937 10.3803C23.887 10.5276 24.0111 10.7746 24.1204 12.2537C24.1506 12.6625 24.1337 12.5525 24.2031 13.9729C24.2435 14.8106 24.2708 15.2691 24.2842 15.9866C24.2912 16.3389 24.292 16.5986 24.2908 16.6682C24.2958 17.6242 24.3697 21.1034 24.4847 23.7342C24.7946 30.8924 25.6199 38.0056 25.6199 38.0056C25.8965 40.3936 26.2899 43.3859 26.8476 46.8338C27.1439 48.8195 27.4382 50.8036 27.7344 52.7894C27.7643 52.9422 27.7571 53.0691 27.7402 53.1693ZM43.6353 29.3081C43.9425 32.9242 44.0776 35.3045 44.3711 40.2056C44.5287 42.8436 44.7578 46.611 45.0457 51.2401C45.0943 52.0259 44.5083 52.7063 43.7261 52.7747L30.1432 53.9631C29.361 54.0315 28.6657 53.4632 28.5772 52.6809C28.0569 48.0721 27.6282 44.3222 27.3254 41.6969C26.7633 36.8193 26.4831 34.4517 26.1577 30.8372C26.0942 30.1112 25.7985 26.794 25.5169 22.3216C25.3216 19.2115 25.1247 15.4138 24.9915 11.0491C24.9602 10.0222 25.7341 9.14803 26.7556 9.055L26.7738 9.05341C28.8512 8.86434 30.9308 8.67875 33.0089 8.49694C35.0869 8.31513 37.1671 8.13679 39.2459 7.96224L39.264 7.96066C40.2861 7.87489 41.2001 8.60143 41.3476 9.61815C41.9744 13.9396 42.4399 17.7138 42.7876 20.8106C43.287 25.264 43.5718 28.5821 43.6353 29.3081ZM62.5415 31.8584C62.7204 34.8018 62.7403 36.8063 62.7692 40.0206C62.8472 48.9182 62.4424 49.7053 61.7711 50.2267C60.4937 51.22 57.9521 51.4752 54.473 51.8235C54.3915 51.8325 54.3226 51.8385 54.0596 51.8633C51.5072 52.1013 49.3231 52.2832 47.5502 52.42C47.1742 52.4493 46.7944 52.3728 46.4736 52.1759C46.2591 52.0447 46.0539 51.8523 45.9547 51.5757C45.9207 51.4799 45.8916 51.3563 45.8945 51.2006C45.8414 49.1936 45.7867 47.1885 45.7336 45.1814C45.6841 41.6891 45.552 38.674 45.4097 36.2742C45.4097 36.2742 44.9873 29.1258 44.0495 22.0225C43.7058 19.4117 43.1745 15.9725 43.0134 15.0301C43.0001 14.9618 42.9558 14.706 42.9016 14.3578C42.7902 13.6488 42.7374 13.1926 42.6317 12.3606C42.4534 10.9497 42.4559 11.061 42.4147 10.6532C42.2655 9.17756 42.3447 8.91277 42.4111 8.75152C42.4565 8.6433 42.5327 8.49033 42.6677 8.31941C43.0219 7.87329 43.5565 7.60889 44.1223 7.5539C49.8779 6.99366 54.1051 6.70978 55.3459 6.67803C55.6669 6.66824 56.6916 6.65357 57.6046 7.18086C57.9493 7.3793 58.1653 7.59083 58.2437 7.67175C58.7235 8.16013 58.9041 8.69845 58.9769 8.92434C61.0334 15.2897 61.8977 24.6251 61.8977 24.6251C62.3349 29.3509 62.4106 29.7137 62.5415 31.8584Z" fill="url(#paint3_linear_9876_13068)"/>
<path d="M45.9566 51.5727C46.0557 51.8493 46.2609 52.0417 46.4754 52.1729C46.7962 52.3698 47.176 52.4463 47.552 52.417C49.3249 52.2802 51.5091 52.0983 54.0614 51.8603C54.3244 51.8355 54.3934 51.8295 54.4749 51.8205C57.9539 51.4722 60.4955 51.217 61.7729 50.2237C62.4442 49.7023 62.849 48.9153 62.771 40.0176C62.7422 36.8033 62.7222 34.7988 62.5434 31.8555C62.4124 29.7107 62.3368 29.3479 61.8996 24.6222C61.8996 24.6222 61.0353 15.2867 58.9788 8.92135C58.906 8.69546 58.7254 8.15714 58.2455 7.66876C58.1671 7.58784 57.9511 7.3763 57.6064 7.17786C56.6934 6.65057 55.6687 6.66524 55.3477 6.67504C54.1069 6.70679 49.8798 6.99066 44.1242 7.55091C43.5584 7.60589 43.0237 7.87029 42.6696 8.31642C42.5346 8.48734 42.4583 8.64031 42.4129 8.74852C42.3466 8.90978 42.2673 9.17457 42.4165 10.6502C42.4577 11.058 42.4553 10.9467 42.6336 12.3576C42.7393 13.1896 42.792 13.6458 42.9034 14.3548C42.9577 14.703 43.002 14.9588 43.0153 15.0272C43.1764 15.9695 43.7077 19.4087 44.0513 22.0195C44.9892 29.1228 45.4116 36.2712 45.4116 36.2712C45.5538 38.671 45.686 41.6861 45.7355 45.1785C45.7885 47.1855 45.8433 49.1906 45.8963 51.1976C45.8935 51.3533 45.9226 51.4769 45.9566 51.5727ZM46.4005 49.6027C46.3489 47.7381 46.2972 45.8718 46.2475 44.0071C46.1991 40.7579 46.0727 37.9544 45.9399 35.7258C45.9399 35.7258 45.5466 29.0777 44.678 22.4731C44.3595 20.0448 43.8675 16.8454 43.7177 15.9697C43.7065 15.9049 43.6656 15.667 43.6156 15.3459C43.5121 14.6856 43.4622 14.262 43.3652 13.4878C43.1991 12.1746 43.2027 12.2785 43.1641 11.8997C43.0258 10.5274 43.0993 10.2814 43.1594 10.1316C43.2 10.0312 43.2699 9.88971 43.3948 9.72882C43.719 9.3164 44.2096 9.07048 44.73 9.01947C50.0176 8.50382 53.8995 8.24467 55.04 8.21621C55.3356 8.20864 56.2781 8.19567 57.1165 8.6856C57.4327 8.8719 57.631 9.06853 57.7033 9.14267C58.1455 9.59776 58.3118 10.0989 58.3778 10.309C60.2728 16.2294 61.0762 24.91 61.0762 24.91C61.4825 29.3038 61.5523 29.6415 61.6755 31.6351C61.7218 32.3937 61.7567 33.0856 61.7841 33.7543C61.8295 34.8788 61.8565 36.2334 61.8723 37.3128C61.8881 38.3922 61.8928 39.1983 61.8932 39.2239C61.7155 44.9892 62.202 47.7283 60.5057 48.9502C60.4402 48.9961 60.3865 49.0301 60.2788 49.0944C58.978 49.883 57.9071 49.8505 54.2812 50.1915C53.9946 50.2184 54.2412 50.195 53.9038 50.2264C52.1643 50.3895 50.0358 50.5813 47.5486 50.7897C47.4389 50.7902 47.1579 50.7763 46.8907 50.5858C46.8907 50.5858 46.5843 50.3657 46.4567 49.9525C46.4035 49.7835 46.4024 49.6446 46.4005 49.6027Z" fill="url(#paint4_linear_9876_13068)"/>
<path d="M46.4479 49.9546C46.5755 50.3677 46.8818 50.5878 46.8818 50.5878C47.1491 50.7784 47.4301 50.7922 47.5398 50.7917C50.027 50.5833 52.1554 50.3916 53.895 50.2284C54.2324 50.1971 53.9857 50.2205 54.2723 50.1936C57.8983 49.8526 58.9691 49.8851 60.2699 49.0964C60.3777 49.0322 60.4314 48.9982 60.4969 48.9522C62.1932 47.7303 61.7066 44.9913 61.8844 39.2259C61.884 39.2004 61.8793 38.3943 61.8635 37.3148C61.8477 36.2354 61.8206 34.8808 61.7753 33.7564C61.7479 33.0876 61.7129 32.3957 61.6667 31.6372C61.5435 29.6436 61.4737 29.3058 61.0673 24.912C61.0673 24.912 60.264 16.2315 58.3689 10.311C58.303 10.101 58.1366 9.5998 57.6945 9.14471C57.6222 9.07057 57.4239 8.87394 57.1077 8.68764C56.2693 8.19772 55.3267 8.21068 55.0311 8.21826C53.8906 8.24671 50.0088 8.50586 44.7211 9.02151C44.2007 9.07253 43.7102 9.31844 43.386 9.73086C43.2611 9.89175 43.1911 10.0332 43.1505 10.1337C43.0905 10.2834 43.0169 10.5294 43.1553 11.9017C43.1939 12.2806 43.1903 12.1766 43.3564 13.4898C43.4534 14.2641 43.5032 14.6876 43.6067 15.3479C43.6568 15.6691 43.6977 15.9069 43.7089 15.9718C43.8586 16.8475 44.3507 20.0469 44.6692 22.4751C45.5378 29.0797 45.9311 35.7278 45.9311 35.7278C46.0639 37.9565 46.1903 40.7599 46.2386 44.0091C46.2884 45.8738 46.3401 47.7402 46.3917 49.6047C46.3935 49.6466 46.3947 49.7855 46.4479 49.9546Z" fill="#FEFEDF"/>
<path d="M46.4479 49.9546C46.5755 50.3677 46.8818 50.5878 46.8818 50.5878C47.1491 50.7784 47.4301 50.7922 47.5398 50.7917C50.027 50.5833 52.1554 50.3916 53.895 50.2284C54.2324 50.1971 53.9857 50.2205 54.2723 50.1936C57.8983 49.8526 58.9691 49.8851 60.2699 49.0964C60.3777 49.0322 60.4314 48.9982 60.4969 48.9522C62.1932 47.7303 61.7066 44.9913 61.8844 39.2259C61.884 39.2004 61.8793 38.3943 61.8635 37.3148C61.8477 36.2354 61.8206 34.8808 61.7753 33.7564C61.7479 33.0876 61.7129 32.3957 61.6667 31.6372C61.5435 29.6436 61.4737 29.3058 61.0673 24.912C61.0673 24.912 60.264 16.2315 58.3689 10.311C58.303 10.101 58.1366 9.5998 57.6945 9.14471C57.6222 9.07057 57.4239 8.87394 57.1077 8.68764C56.2693 8.19772 55.3267 8.21068 55.0311 8.21826C53.8906 8.24671 50.0088 8.50586 44.7211 9.02151C44.2007 9.07253 43.7102 9.31844 43.386 9.73086C43.2611 9.89175 43.1911 10.0332 43.1505 10.1337C43.0905 10.2834 43.0169 10.5294 43.1553 11.9017C43.1939 12.2806 43.1903 12.1766 43.3564 13.4898C43.4534 14.2641 43.5032 14.6876 43.6067 15.3479C43.6568 15.6691 43.6977 15.9069 43.7089 15.9718C43.8586 16.8475 44.3507 20.0469 44.6692 22.4751C45.5378 29.0797 45.9311 35.7278 45.9311 35.7278C46.0639 37.9565 46.1903 40.7599 46.2386 44.0091C46.2884 45.8738 46.3401 47.7402 46.3917 49.6047C46.3935 49.6466 46.3947 49.7855 46.4479 49.9546Z" fill="url(#paint5_radial_9876_13068)"/>
<path d="M42.8566 29.3008C43.0028 30.8882 43.3315 34.625 43.611 39.4706C43.7789 42.393 43.9366 45.8887 44.0315 49.858C44.0382 50.2067 43.9111 50.5306 43.6927 50.7728C43.4763 51.0167 43.1686 51.1789 42.822 51.2093L36.7965 51.7364L36.9392 53.3681L43.7306 52.7739C44.5129 52.7054 45.0989 52.0251 45.0503 51.2393C44.7623 46.6101 44.5333 42.8427 44.3757 40.2047C44.0822 35.3036 43.9471 32.9234 43.6399 29.3073C43.5764 28.5813 43.2915 25.2631 42.7922 20.8098C42.4445 17.713 41.9789 13.9388 41.3521 9.6173C41.2047 8.60059 40.2907 7.87405 39.2686 7.95981L39.2504 7.9614C37.1717 8.13595 35.0915 8.31429 33.0134 8.49609L33.1363 9.90084C35.0728 9.73141 37.0079 9.56578 38.945 9.40361L39.1247 9.38789C39.8518 9.31696 40.5059 9.83216 40.6093 10.5546C41.2199 14.7952 41.6788 18.4511 42.018 21.3676C42.2482 23.3501 42.5439 25.8937 42.8566 29.3008Z" fill="url(#paint6_linear_9876_13068)"/>
<path d="M42.8463 29.3047C42.5335 25.8976 42.2378 23.354 42.0077 21.3716C41.6684 18.455 41.2096 14.7992 40.599 10.5585C40.4956 9.83607 39.8415 9.32088 39.1144 9.39181L38.9347 9.40753C36.9975 9.56969 35.0625 9.73533 33.126 9.90475C31.1895 10.0742 29.2551 10.2471 27.3192 10.4237L27.1395 10.4395C26.4111 10.4959 25.8565 11.1168 25.88 11.8463C26.0151 16.1285 26.1981 19.8085 26.3704 22.7397C26.488 24.7319 26.6385 27.2882 26.9222 30.6979C27.0539 32.2866 27.379 36.0237 27.9452 40.8442C28.2873 43.7514 28.739 47.2213 29.3349 51.1468C29.3888 51.4914 29.5702 51.7883 29.8273 51.9889C30.0828 52.1915 30.414 52.2978 30.7606 52.2675L42.8117 51.2132C43.1583 51.1829 43.466 51.0206 43.6824 50.7767C43.9008 50.5345 44.0279 50.2107 44.0212 49.862C43.9263 45.8926 43.7686 42.3969 43.6007 39.4746C43.3212 34.6289 42.9924 30.8921 42.8463 29.3047Z" fill="#FEFEDF"/>
<path d="M42.8463 29.3047C42.5335 25.8976 42.2378 23.354 42.0077 21.3716C41.6684 18.455 41.2096 14.7992 40.599 10.5585C40.4956 9.83607 39.8415 9.32088 39.1144 9.39181L38.9347 9.40753C36.9975 9.56969 35.0625 9.73533 33.126 9.90475C31.1895 10.0742 29.2551 10.2471 27.3192 10.4237L27.1395 10.4395C26.4111 10.4959 25.8565 11.1168 25.88 11.8463C26.0151 16.1285 26.1981 19.8085 26.3704 22.7397C26.488 24.7319 26.6385 27.2882 26.9222 30.6979C27.0539 32.2866 27.379 36.0237 27.9452 40.8442C28.2873 43.7514 28.739 47.2213 29.3349 51.1468C29.3888 51.4914 29.5702 51.7883 29.8273 51.9889C30.0828 52.1915 30.414 52.2978 30.7606 52.2675L42.8117 51.2132C43.1583 51.1829 43.466 51.0206 43.6824 50.7767C43.9008 50.5345 44.0279 50.2107 44.0212 49.862C43.9263 45.8926 43.7686 42.3969 43.6007 39.4746C43.3212 34.6289 42.9924 30.8921 42.8463 29.3047Z" fill="url(#paint7_radial_9876_13068)"/>
</g>
<g filter="url(#filter1_d_9876_13068)">
<path d="M10.4434 33.0131C10.4852 33.3862 10.3566 33.776 10.0444 34.0538C9.20262 34.8005 8.41242 35.4676 7.68713 36.0615C7.06422 36.5713 6.37521 37.1199 5.31516 37.3992C5.30971 37.3996 5.30245 37.4003 5.29551 37.4045C4.43359 37.6281 3.56926 37.0508 3.41768 36.1753C3.41641 36.1608 3.41514 36.1462 3.41024 36.132C3.25367 35.2204 3.16493 34.3942 3.10954 33.6565C3.036 32.9205 2.98174 32.0913 2.97581 31.1664C2.97454 31.1519 2.97327 31.1374 2.97563 31.1226C2.97287 30.234 3.72382 29.5154 4.61147 29.5859C4.61873 29.5853 4.62599 29.5846 4.63175 29.5878C5.72238 29.6789 6.498 30.0993 7.19998 30.4933C8.01736 30.9521 8.91141 31.4719 9.87004 32.0611C10.2256 32.2787 10.4201 32.642 10.4438 33.0167L10.4434 33.0131Z" fill="url(#paint8_linear_9876_13068)"/>
<path d="M9.01493 33.1415C9.01604 33.1542 9.01715 33.1669 9.01826 33.1796C9.02953 33.6011 8.68533 33.9312 8.09303 34.4146C7.4493 34.9372 6.56377 35.6018 5.41304 36.3078C4.95305 36.5894 4.34859 36.3277 4.23823 35.7979C4.03064 34.8047 3.92457 34.0313 3.87872 33.5909C3.8474 33.1492 3.81755 32.3691 3.84953 31.355C3.86621 30.814 4.41604 30.4514 4.91795 30.6489C6.1738 31.1443 7.16126 31.645 7.88598 32.0479C8.55322 32.4211 8.94951 32.6864 9.0116 33.1034C9.01271 33.1161 9.01382 33.1288 9.01493 33.1415Z" fill="url(#paint9_linear_9876_13068)"/>
</g>
<g filter="url(#filter2_d_9876_13068)">
<path d="M59.4402 28.7252C59.4639 29.0999 59.6583 29.4614 60.014 29.6809C60.9726 30.27 61.8666 30.7898 62.684 31.2486C63.386 31.6426 64.1598 32.0632 65.2523 32.1541C65.2577 32.1537 65.265 32.153 65.2725 32.156C66.1602 32.2265 66.9111 31.5079 66.9084 30.6194C66.9071 30.6048 66.9058 30.5903 66.9082 30.5755C66.9041 29.6505 66.848 28.8214 66.7745 28.0854C66.7191 27.3477 66.6285 26.5217 66.4738 25.6099C66.4725 25.5954 66.4712 25.5808 66.4663 25.5666C66.3148 24.6911 65.4504 24.1138 64.5885 24.3374C64.5812 24.338 64.574 24.3386 64.5689 24.3428C63.5106 24.6219 62.8198 25.1706 62.1969 25.6805C61.4716 26.2743 60.6814 26.9414 59.8396 27.6881C59.5273 27.9641 59.3988 28.3558 59.4406 28.7288L59.4402 28.7252Z" fill="url(#paint10_linear_9876_13068)"/>
<path d="M60.8611 28.6026C60.8623 28.6153 60.8634 28.628 60.8645 28.6407C60.9266 29.0577 61.3228 29.323 61.9901 29.6962C62.7148 30.0992 63.7023 30.5998 64.9581 31.0953C65.46 31.2928 66.0099 30.9301 66.0265 30.3892C66.0585 29.375 66.0287 28.5949 65.9973 28.1533C65.9515 27.7129 65.8454 26.9394 65.6378 25.9462C65.5275 25.4164 64.923 25.1547 64.463 25.4364C63.3123 26.1424 62.4268 26.8069 61.783 27.3296C61.1907 27.813 60.8465 28.143 60.8578 28.5645C60.8589 28.5772 60.86 28.5899 60.8611 28.6026Z" fill="url(#paint11_linear_9876_13068)"/>
</g>
<defs>
<filter id="filter0_dd_9876_13068" x="0.270876" y="0.42444" width="69.4006" height="60.616" filterUnits="userSpaceOnUse" color-interpolation-filters="sRGB">
<feFlood flood-opacity="0" result="BackgroundImageFix"/>
<feColorMatrix in="SourceAlpha" type="matrix" values="0 0 0 0 0 0 0 0 0 0 0 0 0 0 0 0 0 0 127 0" result="hardAlpha"/>
<feOffset/>
<feGaussianBlur stdDeviation="2.18622"/>
<feComposite in2="hardAlpha" operator="out"/>
<feColorMatrix type="matrix" values="0 0 0 0 0 0 0 0 0 0 0 0 0 0 0 0 0 0 0.8 0"/>
<feBlend mode="normal" in2="BackgroundImageFix" result="effect1_dropShadow_9876_13068"/>
<feColorMatrix in="SourceAlpha" type="matrix" values="0 0 0 0 0 0 0 0 0 0 0 0 0 0 0 0 0 0 127 0" result="hardAlpha"/>
<feOffset/>
<feGaussianBlur stdDeviation="0.728739"/>
<feComposite in2="hardAlpha" operator="out"/>
<feColorMatrix type="matrix" values="0 0 0 0 0 0 0 0 0 0 0 0 0 0 0 0 0 0 0.8 0"/>
<feBlend mode="normal" in2="effect1_dropShadow_9876_13068" result="effect2_dropShadow_9876_13068"/>
<feBlend mode="normal" in="SourceGraphic" in2="effect2_dropShadow_9876_13068" result="shape"/>
</filter>
<filter id="filter1_d_9876_13068" x="2.97437" y="29.3998" width="8.20555" height="8.59983" filterUnits="userSpaceOnUse" color-interpolation-filters="sRGB">
<feFlood flood-opacity="0" result="BackgroundImageFix"/>
<feColorMatrix in="SourceAlpha" type="matrix" values="0 0 0 0 0 0 0 0 0 0 0 0 0 0 0 0 0 0 127 0" result="hardAlpha"/>
<feOffset dx="0.36437" dy="0.182185"/>
<feGaussianBlur stdDeviation="0.182185"/>
<feComposite in2="hardAlpha" operator="out"/>
<feColorMatrix type="matrix" values="0 0 0 0 0 0 0 0 0 0 0 0 0 0 0 0 0 0 0.4 0"/>
<feBlend mode="normal" in2="BackgroundImageFix" result="effect1_dropShadow_9876_13068"/>
<feBlend mode="normal" in="SourceGraphic" in2="effect1_dropShadow_9876_13068" result="shape"/>
</filter>
<filter id="filter2_d_9876_13068" x="58.7041" y="24.1069" width="8.20433" height="8.59983" filterUnits="userSpaceOnUse" color-interpolation-filters="sRGB">
<feFlood flood-opacity="0" result="BackgroundImageFix"/>
<feColorMatrix in="SourceAlpha" type="matrix" values="0 0 0 0 0 0 0 0 0 0 0 0 0 0 0 0 0 0 127 0" result="hardAlpha"/>
<feOffset dx="-0.36437" dy="0.182185"/>
<feGaussianBlur stdDeviation="0.182185"/>
<feComposite in2="hardAlpha" operator="out"/>
<feColorMatrix type="matrix" values="0 0 0 0 0 0 0 0 0 0 0 0 0 0 0 0 0 0 0.4 0"/>
<feBlend mode="normal" in2="BackgroundImageFix" result="effect1_dropShadow_9876_13068"/>
<feBlend mode="normal" in="SourceGraphic" in2="effect1_dropShadow_9876_13068" result="shape"/>
</filter>
<linearGradient id="paint0_linear_9876_13068" x1="18.7441" y1="54.958" x2="14.8193" y2="10.097" gradientUnits="userSpaceOnUse">
<stop stop-color="#FCC71F"/>
<stop offset="0.02" stop-color="#FFC31A"/>
<stop offset="0.03" stop-color="#ECA115"/>
<stop offset="0.04" stop-color="#DB8410"/>
<stop offset="0.06" stop-color="#CF6D0D"/>
<stop offset="0.07" stop-color="#C65D0A"/>
<stop offset="0.08" stop-color="#C05409"/>
<stop offset="0.1" stop-color="#BF5109"/>
<stop offset="0.15" stop-color="#C05409"/>
<stop offset="0.19" stop-color="#C65E0C"/>
<stop offset="0.23" stop-color="#D07010"/>
<stop offset="0.26" stop-color="#DE8915"/>
<stop offset="0.29" stop-color="#F0A91C"/>
<stop offset="0.3" stop-color="#F4AF1E"/>
<stop offset="0.36" stop-color="#F4B21E"/>
<stop offset="0.41" stop-color="#F6BD21"/>
<stop offset="0.45" stop-color="#F8CF26"/>
<stop offset="0.5" stop-color="#FDEA2D"/>
<stop offset="0.57" stop-color="#F6C622"/>
<stop offset="0.65" stop-color="#EEA217"/>
<stop offset="0.69" stop-color="#EC9413"/>
<stop offset="0.7" stop-color="#EA9112"/>
<stop offset="0.74" stop-color="#E58310"/>
<stop offset="0.8" stop-color="#E27B0F"/>
<stop offset="0.91" stop-color="#E2790F"/>
<stop offset="0.94" stop-color="#D0630B"/>
<stop offset="1" stop-color="#A93405"/>
</linearGradient>
<radialGradient id="paint1_radial_9876_13068" cx="0" cy="0" r="1" gradientUnits="userSpaceOnUse" gradientTransform="translate(17.1385 32.4361) rotate(-95) scale(21.4923 21.9222)">
<stop stop-color="white" stop-opacity="0"/>
<stop offset="0.22" stop-color="#EBDFDF" stop-opacity="0.09"/>
<stop offset="0.57" stop-color="#B78A88" stop-opacity="0.33"/>
<stop offset="1" stop-color="#660400" stop-opacity="0.7"/>
</radialGradient>
<linearGradient id="paint2_linear_9876_13068" x1="32.5614" y1="53.7515" x2="28.6356" y2="8.87952" gradientUnits="userSpaceOnUse">
<stop stop-color="#FCC71F"/>
<stop offset="0.02" stop-color="#FFC31A"/>
<stop offset="0.03" stop-color="#ECA115"/>
<stop offset="0.04" stop-color="#DB8410"/>
<stop offset="0.06" stop-color="#CF6D0D"/>
<stop offset="0.07" stop-color="#C65D0A"/>
<stop offset="0.08" stop-color="#C05409"/>
<stop offset="0.1" stop-color="#BF5109"/>
<stop offset="0.15" stop-color="#C05409"/>
<stop offset="0.19" stop-color="#C65E0C"/>
<stop offset="0.23" stop-color="#D07010"/>
<stop offset="0.26" stop-color="#DE8915"/>
<stop offset="0.29" stop-color="#F0A91C"/>
<stop offset="0.3" stop-color="#F4AF1E"/>
<stop offset="0.36" stop-color="#F4B21E"/>
<stop offset="0.41" stop-color="#F6BD21"/>
<stop offset="0.45" stop-color="#F8CF26"/>
<stop offset="0.5" stop-color="#FDEA2D"/>
<stop offset="0.57" stop-color="#F6C622"/>
<stop offset="0.65" stop-color="#EEA217"/>
<stop offset="0.69" stop-color="#EC9413"/>
<stop offset="0.7" stop-color="#EA9112"/>
<stop offset="0.74" stop-color="#E58310"/>
<stop offset="0.8" stop-color="#E27B0F"/>
<stop offset="0.91" stop-color="#E2790F"/>
<stop offset="0.94" stop-color="#D0630B"/>
<stop offset="1" stop-color="#A93405"/>
</linearGradient>
<linearGradient id="paint3_linear_9876_13068" x1="32.8591" y1="6.78547" x2="37.0426" y2="54.603" gradientUnits="userSpaceOnUse">
<stop stop-color="#FACC25"/>
<stop offset="0.09" stop-color="#F2DA00"/>
<stop offset="0.12" stop-color="#F7CA00"/>
<stop offset="0.15" stop-color="#FBC000"/>
<stop offset="0.18" stop-color="#FDBD00"/>
<stop offset="0.21" stop-color="#FDCB10"/>
<stop offset="0.25" stop-color="#FDF039"/>
<stop offset="0.3" stop-color="#FDF23D"/>
<stop offset="0.34" stop-color="#FFF846"/>
<stop offset="0.37" stop-color="#FFF53C"/>
<stop offset="0.41" stop-color="#FFEE23"/>
<stop offset="0.46" stop-color="#FFE500"/>
<stop offset="0.5" stop-color="#FFEC19"/>
<stop offset="0.54" stop-color="#FFF029"/>
<stop offset="0.57" stop-color="#FFF22F"/>
<stop offset="0.61" stop-color="#FDED2D"/>
<stop offset="0.66" stop-color="#FAE02A"/>
<stop offset="0.71" stop-color="#F5CA24"/>
<stop offset="0.76" stop-color="#EDAC1D"/>
<stop offset="0.78" stop-color="#EA9D19"/>
<stop offset="0.79" stop-color="#E99A19"/>
<stop offset="0.82" stop-color="#E38919"/>
<stop offset="0.85" stop-color="#E2841A"/>
<stop offset="0.88" stop-color="#D66E0D"/>
<stop offset="0.91" stop-color="#CA5700"/>
<stop offset="0.98" stop-color="#C95200"/>
</linearGradient>
<linearGradient id="paint4_linear_9876_13068" x1="55.1256" y1="51.7746" x2="51.2007" y2="6.9135" gradientUnits="userSpaceOnUse">
<stop stop-color="#FCC71F"/>
<stop offset="0.02" stop-color="#FFC31A"/>
<stop offset="0.03" stop-color="#ECA115"/>
<stop offset="0.04" stop-color="#DB8410"/>
<stop offset="0.06" stop-color="#CF6D0D"/>
<stop offset="0.07" stop-color="#C65D0A"/>
<stop offset="0.08" stop-color="#C05409"/>
<stop offset="0.1" stop-color="#BF5109"/>
<stop offset="0.15" stop-color="#C05409"/>
<stop offset="0.19" stop-color="#C65E0C"/>
<stop offset="0.23" stop-color="#D07010"/>
<stop offset="0.26" stop-color="#DE8915"/>
<stop offset="0.29" stop-color="#F0A91C"/>
<stop offset="0.3" stop-color="#F4AF1E"/>
<stop offset="0.36" stop-color="#F4B21E"/>
<stop offset="0.41" stop-color="#F6BD21"/>
<stop offset="0.45" stop-color="#F8CF26"/>
<stop offset="0.5" stop-color="#FDEA2D"/>
<stop offset="0.57" stop-color="#F6C622"/>
<stop offset="0.65" stop-color="#EEA217"/>
<stop offset="0.69" stop-color="#EC9413"/>
<stop offset="0.7" stop-color="#EA9112"/>
<stop offset="0.74" stop-color="#E58310"/>
<stop offset="0.8" stop-color="#E27B0F"/>
<stop offset="0.91" stop-color="#E2790F"/>
<stop offset="0.94" stop-color="#D0630B"/>
<stop offset="1" stop-color="#A93405"/>
</linearGradient>
<radialGradient id="paint5_radial_9876_13068" cx="0" cy="0" r="1" gradientUnits="userSpaceOnUse" gradientTransform="translate(52.7884 29.3177) rotate(-95) scale(21.4923 21.9222)">
<stop stop-color="white" stop-opacity="0"/>
<stop offset="0.22" stop-color="#EBDFDF" stop-opacity="0.09"/>
<stop offset="0.57" stop-color="#B78A88" stop-opacity="0.33"/>
<stop offset="1" stop-color="#660400" stop-opacity="0.7"/>
</radialGradient>
<linearGradient id="paint6_linear_9876_13068" x1="41.3077" y1="52.9859" x2="37.3819" y2="8.1139" gradientUnits="userSpaceOnUse">
<stop stop-color="#FCC71F"/>
<stop offset="0.02" stop-color="#FFC31A"/>
<stop offset="0.03" stop-color="#ECA115"/>
<stop offset="0.04" stop-color="#DB8410"/>
<stop offset="0.06" stop-color="#CF6D0D"/>
<stop offset="0.07" stop-color="#C65D0A"/>
<stop offset="0.08" stop-color="#C05409"/>
<stop offset="0.1" stop-color="#BF5109"/>
<stop offset="0.15" stop-color="#C05409"/>
<stop offset="0.19" stop-color="#C65E0C"/>
<stop offset="0.23" stop-color="#D07010"/>
<stop offset="0.26" stop-color="#DE8915"/>
<stop offset="0.29" stop-color="#F0A91C"/>
<stop offset="0.3" stop-color="#F4AF1E"/>
<stop offset="0.36" stop-color="#F4B21E"/>
<stop offset="0.41" stop-color="#F6BD21"/>
<stop offset="0.45" stop-color="#F8CF26"/>
<stop offset="0.5" stop-color="#FDEA2D"/>
<stop offset="0.57" stop-color="#F6C622"/>
<stop offset="0.65" stop-color="#EEA217"/>
<stop offset="0.69" stop-color="#EC9413"/>
<stop offset="0.7" stop-color="#EA9112"/>
<stop offset="0.74" stop-color="#E58310"/>
<stop offset="0.8" stop-color="#E27B0F"/>
<stop offset="0.91" stop-color="#E2790F"/>
<stop offset="0.94" stop-color="#D0630B"/>
<stop offset="1" stop-color="#A93405"/>
</linearGradient>
<radialGradient id="paint7_radial_9876_13068" cx="0" cy="0" r="1" gradientUnits="userSpaceOnUse" gradientTransform="translate(34.948 30.7299) rotate(-5) scale(15.8883 21.6081)">
<stop stop-color="white" stop-opacity="0"/>
<stop offset="0.22" stop-color="#EBDFDF" stop-opacity="0.09"/>
<stop offset="0.57" stop-color="#B78A88" stop-opacity="0.33"/>
<stop offset="1" stop-color="#660400" stop-opacity="0.7"/>
</radialGradient>
<linearGradient id="paint8_linear_9876_13068" x1="8.47565" y1="37.0056" x2="3.78296" y2="29.5852" gradientUnits="userSpaceOnUse">
<stop stop-color="#C45B0A"/>
<stop offset="0.13" stop-color="#C55D09"/>
<stop offset="0.21" stop-color="#CA6506"/>
<stop offset="0.27" stop-color="#D47402"/>
<stop offset="0.31" stop-color="#DB7F00"/>
<stop offset="0.4" stop-color="#DD8402"/>
<stop offset="0.51" stop-color="#E39409"/>
<stop offset="0.63" stop-color="#EEAE15"/>
<stop offset="0.7" stop-color="#F6BF1D"/>
<stop offset="0.82" stop-color="#F4BD1F"/>
<stop offset="0.87" stop-color="#EFB626"/>
<stop offset="0.88" stop-color="#EFB627"/>
<stop offset="0.89" stop-color="#F2AE1D"/>
<stop offset="0.92" stop-color="#F5A916"/>
<stop offset="1" stop-color="#F6A815"/>
</linearGradient>
<linearGradient id="paint9_linear_9876_13068" x1="7.13069" y1="35.1626" x2="4.08148" y2="30.808" gradientUnits="userSpaceOnUse">
<stop stop-color="#FFC825"/>
<stop offset="0.18" stop-color="#FECA26"/>
<stop offset="0.28" stop-color="#FED229"/>
<stop offset="0.31" stop-color="#FED62B"/>
<stop offset="0.52" stop-color="#FCDB2C"/>
<stop offset="0.7" stop-color="#FAE530"/>
<stop offset="0.84" stop-color="#FCE631"/>
<stop offset="0.88" stop-color="#FEE834"/>
<stop offset="0.91" stop-color="#FAEA3B"/>
<stop offset="1" stop-color="#F9EB3D"/>
</linearGradient>
<linearGradient id="paint10_linear_9876_13068" x1="62.0714" y1="32.3154" x2="65.4043" y2="24.1928" gradientUnits="userSpaceOnUse">
<stop stop-color="#C45B0A"/>
<stop offset="0.13" stop-color="#C55D09"/>
<stop offset="0.21" stop-color="#CA6506"/>
<stop offset="0.27" stop-color="#D47402"/>
<stop offset="0.31" stop-color="#DB7F00"/>
<stop offset="0.4" stop-color="#DD8402"/>
<stop offset="0.51" stop-color="#E39409"/>
<stop offset="0.63" stop-color="#EEAE15"/>
<stop offset="0.7" stop-color="#F6BF1D"/>
<stop offset="0.82" stop-color="#F4BD1F"/>
<stop offset="0.87" stop-color="#EFB626"/>
<stop offset="0.88" stop-color="#EFB627"/>
<stop offset="0.89" stop-color="#F2AE1D"/>
<stop offset="0.92" stop-color="#F5A916"/>
<stop offset="1" stop-color="#F6A815"/>
</linearGradient>
<linearGradient id="paint11_linear_9876_13068" x1="63.0677" y1="30.2658" x2="65.3144" y2="25.4478" gradientUnits="userSpaceOnUse">
<stop stop-color="#FFC825"/>
<stop offset="0.18" stop-color="#FECA26"/>
<stop offset="0.28" stop-color="#FED229"/>
<stop offset="0.31" stop-color="#FED62B"/>
<stop offset="0.52" stop-color="#FCDB2C"/>
<stop offset="0.7" stop-color="#FAE530"/>
<stop offset="0.84" stop-color="#FCE631"/>
<stop offset="0.88" stop-color="#FEE834"/>
<stop offset="0.91" stop-color="#FAEA3B"/>
<stop offset="1" stop-color="#F9EB3D"/>
</linearGradient>
</defs>
</svg>
