<svg viewBox="0 0 28 28" fill="none" xmlns="http://www.w3.org/2000/svg">
<circle cx="14.0002" cy="14.0012" r="12.9231" fill="#EB8E07"/>
<circle cx="14.0005" cy="13.9985" r="11.8462" fill="url(#paint0_linear_9801_40966)"/>
<circle cx="13.9999" cy="14.0009" r="9.69231" fill="url(#paint1_linear_9801_40966)"/>
<path d="M13.6436 18.485L10.7576 20.3376C10.4578 20.5303 10.0621 20.438 9.87403 20.1309C9.78186 19.98 9.75319 19.7964 9.79538 19.6233L10.2647 17.6912C10.4192 17.0562 10.8325 16.5197 11.4002 16.2183L14.0953 14.7895C14.2408 14.7123 14.298 14.5288 14.2226 14.3799C14.1639 14.264 14.0393 14.1996 13.913 14.2197L10.9117 14.7023C10.1951 14.8177 9.46472 14.6038 8.91521 14.1188L7.76148 13.1004C7.49364 12.8639 7.46338 12.4491 7.69423 12.1747C7.80466 12.0436 7.96127 11.9623 8.12921 11.9488L11.5479 11.672C11.7897 11.6519 12.0004 11.4942 12.0917 11.2643L13.4026 7.94919C13.5357 7.61291 13.9091 7.45126 14.2373 7.58724C14.3985 7.65394 14.5265 7.78538 14.5914 7.95076L15.8949 11.2689C15.9857 11.4994 16.1954 11.6573 16.4371 11.678L19.8734 11.9648C20.2263 11.9944 20.4888 12.311 20.46 12.6723C20.4463 12.8426 20.3688 13.0006 20.2428 13.1136L17.5947 15.4806C17.4162 15.64 17.3385 15.888 17.3921 16.1242L18.1965 19.657C18.2769 20.0104 18.0626 20.3625 17.7183 20.4452C17.5516 20.4847 17.3758 20.4545 17.2311 20.361L14.3255 18.486C14.117 18.3514 13.8522 18.351 13.6436 18.485Z" fill="url(#paint2_linear_9801_40966)"/>
<path opacity="0.8" d="M25.8454 14.1491C25.8436 14.462 25.8294 14.7723 25.8038 15.0793C25.3716 8.9292 20.2979 3.44754 14.0667 3.40781C7.8352 3.36781 2.69341 8.78428 2.18352 14.9284C2.16188 14.6209 2.15166 14.3105 2.15354 13.9975C2.19511 7.4163 7.53231 2.1149 14.0746 2.15649C20.6167 2.19831 25.887 7.56762 25.8454 14.1491Z" fill="white"/>
<circle cx="14.0002" cy="14.0012" r="13.4231" stroke="#542E00"/>
<defs>
<linearGradient id="paint0_linear_9801_40966" x1="7.65382" y1="3.99784" x2="20.3471" y2="23.9992" gradientUnits="userSpaceOnUse">
<stop stop-color="#FFFC00"/>
<stop offset="0.5" stop-color="#FFF000"/>
<stop offset="1" stop-color="#FFE400"/>
</linearGradient>
<linearGradient id="paint1_linear_9801_40966" x1="8.80724" y1="5.81846" x2="19.1927" y2="22.1833" gradientUnits="userSpaceOnUse">
<stop stop-color="#FFDE00"/>
<stop offset="0.5" stop-color="#FDEC50"/>
<stop offset="1" stop-color="#FBFA9F"/>
</linearGradient>
<linearGradient id="paint2_linear_9801_40966" x1="13.9667" y1="7.54115" x2="14.0592" y2="20.4891" gradientUnits="userSpaceOnUse">
<stop stop-color="#FBB03B"/>
<stop offset="0.5" stop-color="#FD9F1E"/>
<stop offset="1" stop-color="#FF8A00"/>
</linearGradient>
</defs>
</svg>
