<svg  viewBox="0 0 18 18" fill="none" xmlns="http://www.w3.org/2000/svg">
<g clip-path="url(#clip0_9882_14809)">
<g filter="url(#filter0_d_9882_14809)">
<circle cx="9.00056" cy="8.9991" r="8.30769" fill="#EB8E07"/>
</g>
<circle cx="8.99917" cy="9.0021" r="7.61538" fill="url(#paint0_linear_9882_14809)"/>
<circle cx="8.99786" cy="9.00421" r="6.23077" fill="url(#paint1_linear_9882_14809)"/>
<path opacity="0.8" d="M16.6144 9.08472C16.6132 9.28587 16.6041 9.4853 16.5877 9.68269C16.3098 5.72904 13.0481 2.20512 9.0424 2.17958C5.03642 2.15386 1.73099 5.63588 1.4032 9.58567C1.38929 9.38798 1.38272 9.18844 1.38393 8.98724C1.41066 4.75646 4.84171 1.34842 9.04744 1.37516C13.2531 1.40204 16.6412 4.85373 16.6144 9.08472Z" fill="white"/>
<path fill-rule="evenodd" clip-rule="evenodd" d="M8.99873 13.7992C11.6497 13.7992 13.7987 11.6502 13.7987 8.99922C13.7987 6.34825 11.6497 4.19922 8.99873 4.19922C6.34776 4.19922 4.19873 6.34825 4.19873 8.99922C4.19873 11.6502 6.34776 13.7992 8.99873 13.7992ZM7.44817 10.9893C7.56244 11.1615 8.00044 11.7415 8.40955 11.936C8.81866 12.1305 9.30922 12.1956 9.84192 12.1098C10.3747 12.0241 11.3945 11.5174 11.3955 10.5035L11.3972 8.68411C11.3973 8.60108 11.3971 8.52685 11.3969 8.46468C11.3966 8.3664 11.3964 8.29824 11.3976 8.27301C11.4305 7.57436 10.6168 7.69344 10.6164 8.09211C10.6171 7.36461 9.67323 7.46273 9.67287 7.83601C9.67344 7.24571 8.71201 7.25249 8.70267 7.84076L8.70591 6.41778C8.70591 6.41778 8.74156 5.72053 8.1276 5.73308C7.7183 5.74144 7.59384 6.13742 7.58845 6.42155L7.58401 9.1667C7.58401 9.1667 7.29258 8.59208 6.62239 8.54306C5.95221 8.49405 5.92658 9.30875 6.30132 9.44319C6.73209 9.59712 6.98385 10.1014 7.20109 10.5365C7.28584 10.7063 7.36534 10.8655 7.44817 10.9893Z" fill="url(#paint2_linear_9882_14809)"/>
<path fill-rule="evenodd" clip-rule="evenodd" d="M8.99873 13.7992C11.6497 13.7992 13.7987 11.6502 13.7987 8.99922C13.7987 6.34825 11.6497 4.19922 8.99873 4.19922C6.34776 4.19922 4.19873 6.34825 4.19873 8.99922C4.19873 11.6502 6.34776 13.7992 8.99873 13.7992ZM7.44817 10.9893C7.56244 11.1615 8.00044 11.7415 8.40955 11.936C8.81866 12.1305 9.30922 12.1956 9.84192 12.1098C10.3747 12.0241 11.3945 11.5174 11.3955 10.5035L11.3972 8.68411C11.3973 8.60108 11.3971 8.52685 11.3969 8.46468C11.3966 8.3664 11.3964 8.29824 11.3976 8.27301C11.4305 7.57436 10.6168 7.69344 10.6164 8.09211C10.6171 7.36461 9.67323 7.46273 9.67287 7.83601C9.67344 7.24571 8.71201 7.25249 8.70267 7.84076L8.70591 6.41778C8.70591 6.41778 8.74156 5.72053 8.1276 5.73308C7.7183 5.74144 7.59384 6.13742 7.58845 6.42155L7.58401 9.1667C7.58401 9.1667 7.29258 8.59208 6.62239 8.54306C5.95221 8.49405 5.92658 9.30875 6.30132 9.44319C6.73209 9.59712 6.98385 10.1014 7.20109 10.5365C7.28584 10.7063 7.36534 10.8655 7.44817 10.9893Z" fill="#883308"/>
<circle cx="9.00056" cy="8.9991" r="8.48077" stroke="black" stroke-width="0.346154"/>
</g>
<defs>
<filter id="filter0_d_9882_14809" x="0.692871" y="0.691406" width="16.6152" height="17.3095" filterUnits="userSpaceOnUse" color-interpolation-filters="sRGB">
<feFlood flood-opacity="0" result="BackgroundImageFix"/>
<feColorMatrix in="SourceAlpha" type="matrix" values="0 0 0 0 0 0 0 0 0 0 0 0 0 0 0 0 0 0 127 0" result="hardAlpha"/>
<feOffset dy="0.692308"/>
<feComposite in2="hardAlpha" operator="out"/>
<feColorMatrix type="matrix" values="0 0 0 0 0 0 0 0 0 0 0 0 0 0 0 0 0 0 0.5 0"/>
<feBlend mode="normal" in2="BackgroundImageFix" result="effect1_dropShadow_9882_14809"/>
<feBlend mode="normal" in="SourceGraphic" in2="effect1_dropShadow_9882_14809" result="shape"/>
</filter>
<linearGradient id="paint0_linear_9882_14809" x1="4.91919" y1="2.57311" x2="13.0791" y2="15.4311" gradientUnits="userSpaceOnUse">
<stop stop-color="#FFFC00"/>
<stop offset="0.5" stop-color="#FFF000"/>
<stop offset="1" stop-color="#FFE400"/>
</linearGradient>
<linearGradient id="paint1_linear_9882_14809" x1="5.6597" y1="3.74407" x2="12.3361" y2="14.2643" gradientUnits="userSpaceOnUse">
<stop stop-color="#FFDE00"/>
<stop offset="0.5" stop-color="#FDEC50"/>
<stop offset="1" stop-color="#FBFA9F"/>
</linearGradient>
<linearGradient id="paint2_linear_9882_14809" x1="6.36499" y1="4.2847" x2="11.49" y2="12.2354" gradientUnits="userSpaceOnUse">
<stop stop-color="#E8991E"/>
<stop offset="0.5" stop-color="#E88908"/>
<stop offset="1" stop-color="#D97500"/>
</linearGradient>
<clipPath id="clip0_9882_14809">
<rect width="18" height="18" fill="white"/>
</clipPath>
</defs>
</svg>
