<svg width="28" height="28" viewBox="0 0 28 28" fill="none" xmlns="http://www.w3.org/2000/svg">
<path fill-rule="evenodd" clip-rule="evenodd" d="M22.8136 6.39686L5.97292 13.1288L9.29467 14.3156C9.5177 14.3954 9.71957 14.5286 9.884 14.7043C10.0484 14.88 10.1708 15.0934 10.2413 15.3272L11.7431 20.3092L13.037 18.8074L11.7491 17.8636C11.5645 17.7281 11.4116 17.5512 11.3018 17.3459C11.192 17.1407 11.1281 16.9124 11.1148 16.678C11.1015 16.4436 11.1391 16.2091 11.2249 15.9919C11.3108 15.7746 11.4426 15.5803 11.6106 15.4232L16.9481 10.435C17.0456 10.3406 17.1603 10.2673 17.2854 10.2194C17.4105 10.1715 17.5435 10.15 17.6767 10.1561C17.8099 10.1622 17.9406 10.1958 18.0612 10.255C18.1817 10.3142 18.2897 10.3977 18.3789 10.5007C18.468 10.6037 18.5365 10.7241 18.5804 10.8549C18.6242 10.9857 18.6426 11.1243 18.6343 11.2626C18.6261 11.4008 18.5914 11.536 18.5323 11.6601C18.4732 11.7843 18.3909 11.895 18.2902 11.9858L13.4215 16.536L15.116 17.7791L15.1502 17.8052L19.7759 21.5148L22.8136 6.39686ZM14.6623 20.0485L19.1836 23.6746C19.3856 23.8364 19.6238 23.9422 19.8759 23.9821C20.128 24.0221 20.3857 23.9948 20.6249 23.903C20.8641 23.8112 21.0769 23.6577 21.2434 23.4571C21.4099 23.2564 21.5246 23.0151 21.5768 22.7558L24.9668 5.88688C25.2108 4.67398 24.0654 3.66237 22.9531 4.10665L3.96521 11.6958C2.65317 12.2204 2.6873 14.1602 4.0154 14.6348L8.40124 16.2022L10.0907 21.8068C10.17 22.0708 10.3153 22.3083 10.5118 22.495C10.7082 22.6817 10.9488 22.8109 11.209 22.8695C11.4692 22.9282 11.7397 22.9141 11.9929 22.8287C12.2462 22.7433 12.4731 22.5897 12.6506 22.3835L14.6623 20.0485Z" fill="#EDFAFF"/>
</svg>
