<svg viewBox="0 0 100 101" fill="none" xmlns="http://www.w3.org/2000/svg">
<mask id="mask0_9840_27761" style="mask-type:alpha" maskUnits="userSpaceOnUse" x="8" y="1" width="84" height="99">
<path d="M47.1362 5.73048C48.9798 5.02377 51.0196 5.02378 52.8632 5.73048L86.5298 18.636C89.6237 19.822 91.6663 22.7926 91.6663 26.106V76.6461C91.6663 79.8009 89.8123 82.6611 86.9324 83.949L53.2657 99.0055C51.1875 99.9349 48.8118 99.9349 46.7336 99.0055L13.067 83.949C10.1871 82.6611 8.33301 79.8009 8.33301 76.6461V26.106C8.33301 22.7926 10.3756 19.822 13.4695 18.636L47.1362 5.73048Z" fill="#109BD8"/>
<path d="M47.1362 1.56642C48.9798 0.859711 51.0196 0.859713 52.8632 1.56642L86.5298 14.472C89.6237 15.658 91.6663 18.6285 91.6663 21.9419V72.482C91.6663 75.6368 89.8123 78.497 86.9324 79.785L53.2657 94.8414C51.1875 95.7709 48.8118 95.7709 46.7336 94.8414L13.067 79.785C10.1871 78.497 8.33301 75.6368 8.33301 72.482V21.9419C8.33301 18.6285 10.3756 15.658 13.4695 14.472L47.1362 1.56642Z" fill="#44C2FD"/>
<path d="M47.1267 11.9889C48.9763 11.277 51.0244 11.277 52.8741 11.9889L77.35 21.4097C80.4386 22.5985 82.4763 25.5663 82.4763 28.8757V66.1223C82.4763 69.2727 80.6274 72.1297 77.7535 73.4203L53.2775 84.4112C51.193 85.3473 48.8077 85.3473 46.7232 84.4112L22.2473 73.4203C19.3734 72.1297 17.5244 69.2727 17.5244 66.1223V28.8757C17.5244 25.5663 19.5622 22.5985 22.6507 21.4097L47.1267 11.9889Z" fill="#1CB0F6"/>
</mask>
<g mask="url(#mask0_9840_27761)">
<path d="M47.1362 5.73048C48.9798 5.02377 51.0196 5.02378 52.8632 5.73048L86.5298 18.636C89.6237 19.822 91.6663 22.7926 91.6663 26.106V76.6461C91.6663 79.8009 89.8123 82.6611 86.9324 83.949L53.2657 99.0055C51.1875 99.9349 48.8118 99.9349 46.7336 99.0055L13.067 83.949C10.1871 82.6611 8.33301 79.8009 8.33301 76.6461V26.106C8.33301 22.7926 10.3756 19.822 13.4695 18.636L47.1362 5.73048Z" fill="#109BD8"/>
<path d="M47.1362 1.56642C48.9798 0.859711 51.0196 0.859713 52.8632 1.56642L86.5298 14.472C89.6237 15.658 91.6663 18.6285 91.6663 21.9419V72.482C91.6663 75.6368 89.8123 78.497 86.9324 79.785L53.2657 94.8414C51.1875 95.7709 48.8118 95.7709 46.7336 94.8414L13.067 79.785C10.1871 78.497 8.33301 75.6368 8.33301 72.482V21.9419C8.33301 18.6285 10.3756 15.658 13.4695 14.472L47.1362 1.56642Z" fill="#44C2FD"/>
<path d="M47.1267 11.9889C48.9763 11.277 51.0244 11.277 52.8741 11.9889L77.35 21.4097C80.4386 22.5985 82.4763 25.5663 82.4763 28.8757V66.1223C82.4763 69.2727 80.6274 72.1297 77.7535 73.4203L53.2775 84.4112C51.193 85.3473 48.8077 85.3473 46.7232 84.4112L22.2473 73.4203C19.3734 72.1297 17.5244 69.2727 17.5244 66.1223V28.8757C17.5244 25.5663 19.5622 22.5985 22.6507 21.4097L47.1267 11.9889Z" fill="#1CB0F6"/>
<rect opacity="0.15" x="87.5" y="-16.1953" width="41.6667" height="147.649" transform="rotate(45 87.5 -16.1953)" fill="white"/>
</g>
</svg>
